<?xml version="1.0" standalone="no"?>
<!DOCTYPE svg PUBLIC "-//W3C//DTD SVG 20010904//EN"
 "http://www.w3.org/TR/2001/REC-SVG-20010904/DTD/svg10.dtd">
<svg version="1.0" xmlns="http://www.w3.org/2000/svg"
 width="1536.000000pt" height="1024.000000pt" viewBox="0 0 1536.000000 1024.000000"
 preserveAspectRatio="xMidYMid meet">

<g transform="translate(0.000000,1024.000000) scale(0.100000,-0.100000)"
fill="#000000" stroke="none">
<path d="M0 5120 l0 -5120 7680 0 7680 0 0 5120 0 5120 -7680 0 -7680 0 0
-5120z m5152 4315 c176 -45 308 -120 448 -251 331 -312 438 -803 271 -1244
-11 -30 -44 -96 -72 -145 -177 -310 -466 -490 -818 -511 -328 -20 -673 160
-865 451 -283 428 -255 976 67 1366 102 123 287 253 432 303 135 46 174 53
326 55 95 1 135 -4 211 -24z m4056 -1732 c-16 -2 -40 -2 -55 0 -16 2 -3 4 27
4 30 0 43 -2 28 -4z m-113 -13 c-3 -5 -11 -10 -16 -10 -6 0 -7 5 -4 10 3 6 11
10 16 10 6 0 7 -4 4 -10z m-81 -24 c-10 -8 -21 -12 -24 -10 -5 6 21 24 34 24
6 0 1 -6 -10 -14z m-54 -26 c-8 -6 -22 -10 -30 -10 -8 0 -4 6 10 13 27 15 44
12 20 -3z m70 1 c0 -5 -7 -12 -16 -15 -14 -5 -15 -4 -4 9 14 17 20 19 20 6z
m-125 -30 c-6 -5 -21 -11 -35 -15 -21 -5 -20 -3 5 9 35 17 42 18 30 6z m25
-21 c0 -5 -5 -10 -11 -10 -5 0 -7 5 -4 10 3 6 8 10 11 10 2 0 4 -4 4 -10z
m-120 -25 c-7 -8 -17 -15 -23 -15 -6 0 -2 7 9 15 25 19 30 19 14 0z m90 5 c0
-5 -5 -10 -11 -10 -5 0 -7 5 -4 10 3 6 8 10 11 10 2 0 4 -4 4 -10z m-156 -55
c-28 -22 -40 -18 -13 4 13 11 26 17 28 15 3 -2 -4 -11 -15 -19z m105 22 c-2
-1 -13 -9 -24 -17 -19 -14 -19 -14 -6 3 7 9 18 17 24 17 6 0 8 -1 6 -3z m-54
-37 c-3 -5 -12 -10 -18 -10 -7 0 -6 4 3 10 19 12 23 12 15 0z m-55 -42 c-50
-39 -86 -72 -133 -117 -38 -37 -45 -40 -35 -19 7 15 15 25 17 23 2 -2 22 14
45 35 22 22 44 40 48 40 4 0 5 8 2 18 -5 13 -4 14 4 3 11 -15 27 2 17 19 -4 6
1 7 12 3 16 -6 16 -5 4 10 -9 11 -10 17 -2 17 6 0 11 -4 11 -10 0 -5 5 -10 11
-10 6 0 8 7 4 18 -5 14 -4 15 7 4 11 -11 9 -17 -12 -34z m-50 17 c-7 -9 -15
-13 -19 -10 -3 3 1 10 9 15 21 14 24 12 10 -5z m-75 -57 c-99 -83 -204 -201
-152 -172 9 5 9 4 0 -6 -8 -9 -9 -19 -3 -31 11 -19 4 -49 -11 -49 -5 0 -9 8
-9 18 -1 15 -2 15 -11 -2 -8 -12 -8 -21 -1 -25 6 -3 1 -19 -13 -38 l-22 -33
-11 25 c-6 14 -17 25 -24 25 -9 0 -9 -3 0 -12 7 -7 12 -19 12 -27 0 -10 -6 -6
-14 9 -19 36 0 52 25 21 17 -21 24 -20 20 2 0 4 4 7 9 7 6 0 10 5 10 11 0 6
-7 9 -15 5 -11 -4 -9 3 7 24 16 23 25 27 35 19 16 -14 18 2 1 19 -8 8 -16 8
-32 0 -19 -10 -20 -10 -7 5 7 10 20 17 27 17 8 0 11 6 7 16 -4 11 25 46 96
115 56 54 108 99 114 99 7 0 -10 -19 -38 -42z m-61 -83 c-4 -8 -11 -15 -16
-15 -6 0 -5 6 2 15 7 8 14 15 16 15 2 0 1 -7 -2 -15z m-41 -95 c-13 -10 -23
-24 -23 -32 0 -10 -3 -9 -10 2 -6 10 -4 17 8 24 9 5 21 16 25 23 5 8 12 12 15
8 4 -4 -3 -15 -15 -25z m-113 -64 c0 -2 -7 -7 -16 -10 -8 -3 -12 -2 -9 4 6 10
25 14 25 6z m-66 -99 c-8 -5 -19 -18 -23 -30 -4 -11 -10 -16 -14 -11 -3 6 4
25 15 43 15 24 23 29 29 19 5 -8 2 -16 -7 -21z m14 -27 c-7 -11 -17 -20 -22
-20 -5 0 -1 9 9 20 10 11 20 20 22 20 2 0 -2 -9 -9 -20z m23 -3 c-10 -9 -11
-8 -5 6 3 10 9 15 12 12 3 -3 0 -11 -7 -18z m-81 -27 c0 -5 -5 -10 -11 -10 -5
0 -7 5 -4 10 3 6 8 10 11 10 2 0 4 -4 4 -10z m37 -37 c-19 -27 -42 -49 -53
-50 -10 -2 -13 0 -6 3 6 3 10 10 7 15 -4 5 1 6 9 3 19 -7 21 7 4 26 -11 12
-10 12 4 2 21 -16 35 2 18 23 -9 11 -9 15 -1 15 6 0 11 -5 11 -12 0 -8 6 -6
17 5 28 28 25 20 -10 -30z m-57 7 c0 -5 -5 -10 -11 -10 -5 0 -7 5 -4 10 3 6 8
10 11 10 2 0 4 -4 4 -10z m-24 -39 c0 -11 -4 -17 -8 -15 -4 3 -8 1 -8 -4 0 -9
-10 -22 -71 -92 l-21 -25 16 25 c25 38 89 130 90 130 1 0 2 -9 2 -19z m34 -44
c0 -2 -9 -14 -19 -26 -19 -22 -20 -22 -18 -3 0 12 4 19 8 16 4 -2 10 0 14 6 6
10 15 14 15 7z m-55 -47 c-3 -5 -13 -10 -21 -10 -8 0 -14 -5 -14 -12 0 -6 -3
-8 -7 -4 -5 4 1 14 11 22 23 16 40 19 31 4z m-2 -35 c-3 -9 -8 -14 -10 -11 -3
3 -2 9 2 15 9 16 15 13 8 -4z m-26 -47 c-3 -8 -6 -5 -6 6 -1 11 2 17 5 13 3
-3 4 -12 1 -19z m-71 -10 c4 -7 3 -10 -1 -5 -11 9 -37 -51 -28 -67 4 -8 3 -8
-6 0 -10 9 -9 19 3 48 16 39 21 43 32 24z m7 -114 c-3 -8 -7 -14 -10 -14 -3 0
-3 6 0 14 3 7 0 20 -6 27 -10 11 -9 11 5 0 9 -7 14 -19 11 -27z m-43 -29 c11
-13 10 -14 -4 -9 -9 3 -16 10 -16 15 0 13 6 11 20 -6z m0 -43 c0 -12 3 -13 8
-5 5 8 8 -2 8 -22 0 -26 -2 -31 -9 -19 -15 27 -27 75 -16 69 5 -4 9 -14 9 -23z
m50 3 c0 -8 -4 -15 -10 -15 -5 0 -7 7 -4 15 4 8 8 15 10 15 2 0 4 -7 4 -15z
m5 -35 c3 -5 1 -10 -4 -10 -6 0 -11 5 -11 10 0 6 2 10 4 10 3 0 8 -4 11 -10z
m-13 -70 c3 -16 3 -30 1 -30 -7 0 -21 45 -16 53 7 13 11 8 15 -23z m38 -10 c0
-5 -2 -10 -4 -10 -3 0 -8 5 -11 10 -3 6 -1 10 4 10 6 0 11 -4 11 -10z m-17
-35 c-3 -9 -8 -14 -10 -11 -3 3 -2 9 2 15 9 16 15 13 8 -4z m34 0 c0 -8 -4
-12 -9 -9 -5 3 -6 10 -3 15 9 13 12 11 12 -6z m-13 -65 c-6 -5 -24 21 -24 34
0 6 6 1 14 -10 8 -10 12 -21 10 -24z m42 4 c8 -20 13 -38 11 -41 -3 -2 -10 11
-17 31 -6 19 -16 37 -23 40 -9 3 -8 5 1 5 7 1 20 -15 28 -35z m-3576 -24 c17
-9 18 -34 12 -534 -5 -555 -5 -556 39 -556 11 0 25 -11 31 -25 10 -21 9 -29
-6 -43 -14 -14 -39 -18 -142 -20 -141 -3 -167 5 -162 46 2 19 12 31 36 41 18
8 35 24 38 35 2 12 3 224 2 471 l-3 450 -38 3 c-29 3 -41 9 -49 28 -16 34 -5
43 110 81 112 37 108 36 132 23z m3560 -40 c0 -11 -2 -20 -4 -20 -2 0 -6 9 -9
20 -3 11 -1 20 4 20 5 0 9 -9 9 -20z m-1334 -39 c-9 -14 -16 -929 -8 -956 6
-22 16 -31 38 -35 24 -4 29 -10 29 -35 0 -26 -7 -34 -50 -57 -80 -44 -124 -35
-154 33 l-18 39 -24 -26 c-32 -35 -120 -74 -167 -74 -218 2 -341 382 -197 610
28 44 102 113 146 136 48 25 155 23 208 -3 l42 -21 -3 141 -3 141 -37 9 c-41
10 -59 40 -37 62 13 12 61 29 169 60 39 11 47 11 57 -2 7 -9 11 -19 9 -22z
m-3319 8 c32 -17 51 -73 42 -123 -20 -110 -168 -126 -208 -22 -13 33 -13 44 0
79 25 73 98 102 166 66z m4673 -19 c6 -11 8 -20 6 -20 -3 0 -10 9 -16 20 -6
11 -8 20 -6 20 3 0 10 -9 16 -20z m20 -45 c0 -8 -2 -15 -4 -15 -2 0 -6 7 -10
15 -3 8 -1 15 4 15 6 0 10 -7 10 -15z m17 -31 c-3 -4 -2 -16 4 -28 10 -20 10
-20 -5 -2 -19 24 -20 36 -4 36 6 0 8 -3 5 -6z m36 -9 c4 -8 1 -17 -5 -21 -7
-4 -8 -3 -4 4 4 7 2 12 -4 12 -6 0 -8 5 -5 10 8 14 12 13 18 -5z m-13 -60 c7
-9 8 -15 2 -15 -5 0 -12 7 -16 15 -3 8 -4 15 -2 15 2 0 9 -7 16 -15z m47 -127
c29 -97 21 -99 -10 -4 -13 42 -21 76 -18 76 4 0 17 -33 28 -72z m27 17 c3 -8
1 -15 -4 -15 -6 0 -10 7 -10 15 0 8 2 15 4 15 2 0 6 -7 10 -15z m-4785 -74
c11 -7 13 -69 7 -378 -7 -375 -12 -443 -41 -523 -68 -191 -222 -275 -322 -175
-30 30 -34 40 -31 76 6 83 98 105 140 33 23 -39 39 -36 70 14 23 37 23 38 21
415 -1 275 -5 382 -14 393 -6 8 -24 14 -39 14 -33 0 -54 22 -46 48 5 14 34 28
109 51 56 18 107 34 112 36 16 6 19 5 34 -4z m629 -17 c61 -30 98 -71 112
-123 17 -64 -19 -121 -75 -121 -39 0 -58 20 -82 85 -28 76 -88 96 -164 53 -44
-24 -84 -94 -95 -164 -8 -53 11 -176 36 -222 42 -81 98 -123 169 -124 42 -1
60 5 111 36 64 40 91 41 111 4 16 -30 -50 -104 -132 -147 -60 -31 -69 -33
-139 -29 -89 5 -160 38 -215 100 -145 159 -128 458 33 599 92 81 229 103 330
53z m1019 -6 c49 -23 99 -85 115 -143 6 -24 10 -118 9 -230 -1 -224 3 -249 45
-253 37 -4 48 -15 39 -41 -8 -26 -100 -81 -135 -81 -32 0 -69 25 -80 56 l-9
24 -72 -38 c-127 -66 -236 -47 -294 52 -31 53 -33 132 -6 192 36 79 146 145
294 176 38 8 57 17 58 28 8 79 -7 128 -44 150 -38 24 -66 25 -111 6 -33 -14
-37 -20 -50 -78 -20 -91 -136 -88 -136 3 0 48 17 84 62 125 85 81 210 102 315
52z m2191 -10 c50 -24 84 -65 106 -131 13 -38 16 -91 16 -252 0 -112 3 -210 6
-219 3 -9 16 -16 29 -16 62 0 51 -66 -17 -99 -76 -36 -134 -21 -154 41 -5 18
-6 18 -31 -1 -35 -29 -127 -61 -171 -61 -46 0 -109 29 -141 63 -13 15 -29 48
-36 75 -39 150 47 248 273 312 l82 24 0 48 c0 54 -20 102 -49 118 -62 33 -151
-8 -151 -68 0 -43 -30 -75 -70 -75 -67 0 -87 72 -41 146 69 112 225 154 349
95z m-1754 12 l26 -10 0 -250 c0 -269 5 -301 51 -334 29 -20 101 -21 139 -1
56 29 61 53 58 277 l-3 203 -27 3 c-14 2 -31 9 -36 15 -16 20 5 56 35 63 15 3
58 15 96 26 37 11 74 17 83 14 13 -5 15 -41 13 -298 -3 -318 -1 -334 48 -340
22 -2 29 -9 31 -30 3 -23 -4 -31 -50 -57 -67 -39 -109 -40 -137 -4 -12 14 -24
37 -27 50 -8 29 -7 29 -41 -3 -52 -48 -103 -68 -175 -69 -58 0 -72 4 -110 30
-45 31 -93 111 -102 170 -2 17 -5 119 -5 227 l-1 197 -31 3 c-39 4 -59 30 -43
56 6 9 49 29 95 44 46 14 85 27 86 27 1 1 13 -3 27 -9z m2510 -33 c20 -16 46
-47 59 -70 21 -39 22 -55 24 -257 1 -118 2 -232 2 -252 1 -31 6 -40 32 -53 24
-13 30 -22 27 -43 l-3 -27 -135 0 c-133 0 -135 0 -138 23 -4 28 14 52 39 52
10 0 20 8 23 18 12 41 17 392 6 432 -27 101 -166 106 -214 7 -14 -31 -16 -65
-14 -239 3 -201 3 -203 26 -213 27 -12 39 -49 22 -70 -20 -24 -248 -17 -264 8
-13 21 2 50 30 56 10 2 22 8 26 15 9 13 11 468 2 490 -3 9 -16 16 -28 16 -34
0 -58 23 -54 50 2 20 16 28 83 52 81 28 135 36 135 19 0 -5 5 -22 10 -37 l11
-27 27 26 c49 47 81 58 158 55 59 -3 77 -8 108 -31z m206 -17 c6 -11 8 -20 6
-20 -3 0 -10 9 -16 20 -6 11 -8 20 -6 20 3 0 10 -9 16 -20z m38 -35 c-3 -3 -9
2 -12 12 -6 14 -5 15 5 6 7 -7 10 -15 7 -18z m-20 -26 c-3 -8 -7 -3 -11 10 -4
17 -3 21 5 13 5 -5 8 -16 6 -23z m17 -29 c3 -5 1 -10 -4 -10 -6 0 -11 5 -11
10 0 6 2 10 4 10 3 0 8 -4 11 -10z m45 -60 c0 -14 -39 -4 -43 11 -4 13 -1 14
19 5 13 -6 24 -13 24 -16z m7 -56 c-3 -3 -12 -4 -19 -1 -8 3 -5 6 6 6 11 1 17
-2 13 -5z m7 -46 c-4 -5 2 -16 12 -23 16 -12 16 -14 3 -15 -9 0 -21 11 -26 23
-9 19 -8 24 3 24 7 0 11 -4 8 -9z m696 -83 c0 -2 -18 -14 -40 -25 -22 -11 -40
-18 -40 -15 0 2 17 13 38 24 42 23 42 23 42 16z m-657 -55 c3 -11 2 -18 -3
-15 -4 3 -10 14 -13 25 -3 11 -2 18 3 15 4 -3 10 -14 13 -25z m21 4 c3 -8 2
-12 -4 -9 -6 3 -10 10 -10 16 0 14 7 11 14 -7z m6 -39 c-6 -8 -8 -20 -4 -27 5
-10 4 -10 -6 -1 -11 10 -11 15 0 28 7 8 15 15 17 15 3 0 0 -7 -7 -15z m450
-19 c0 -2 -7 -7 -16 -10 -8 -3 -12 -2 -9 4 6 10 25 14 25 6z m10 -19 c0 -2
-10 -12 -22 -23 l-23 -19 19 23 c18 21 26 27 26 19z m-75 -27 c-3 -5 -12 -10
-18 -10 -7 0 -6 4 3 10 19 12 23 12 15 0z m-65 -43 c0 -2 -12 -14 -27 -28
l-28 -24 24 28 c23 25 31 32 31 24z m0 -82 c-24 -25 -46 -45 -49 -45 -3 0 15
20 39 45 24 25 46 45 49 45 3 0 -15 -20 -39 -45z m-60 32 c0 -1 -28 -26 -62
-56 l-63 -53 59 56 c55 52 66 61 66 53z m-5 -97 c-3 -5 -12 -10 -18 -10 -7 0
-6 4 3 10 19 12 23 12 15 0z m-80 -120 c-3 -5 -12 -7 -20 -3 -21 7 -19 13 6
13 11 0 18 -4 14 -10z m-152 -115 c-3 -9 -8 -14 -10 -11 -3 3 -2 9 2 15 9 16
15 13 8 -4z m-42 -132 c-12 -20 -14 -14 -5 12 4 9 9 14 11 11 3 -2 0 -13 -6
-23z m-1 -33 c0 -5 -2 -10 -4 -10 -3 0 -8 5 -11 10 -3 6 -1 10 4 10 6 0 11 -4
11 -10z m-13 -202 c-3 -8 -6 -5 -6 6 -1 11 2 17 5 13 3 -3 4 -12 1 -19z
m-3049 -59 c75 -1 92 -4 88 -15 -3 -8 -1 -14 3 -14 5 0 8 -8 6 -17 -2 -10 -4
-21 -4 -25 -1 -4 -8 -5 -16 -2 -8 4 -15 1 -15 -5 0 -6 -6 -11 -14 -11 -19 0
-28 -26 -13 -37 7 -5 26 -8 42 -6 17 2 45 4 63 4 21 1 36 8 42 20 10 18 40 16
40 -3 0 -5 -5 -6 -10 -3 -13 8 -42 -14 -35 -26 3 -4 -8 -6 -25 -4 -22 2 -30
-1 -30 -11 0 -8 -4 -13 -9 -10 -5 3 -8 -2 -7 -11 0 -9 -6 -18 -14 -21 -8 -3
-12 -1 -7 3 4 5 -11 19 -33 33 -32 18 -44 21 -55 12 -16 -13 -58 -4 -49 11 3
5 10 7 15 4 5 -4 9 1 9 9 0 9 5 16 11 16 6 0 8 -9 3 -22 -6 -21 -6 -21 11 -4
11 11 18 31 17 52 -1 19 3 34 9 34 6 0 8 -4 4 -9 -7 -13 12 -24 26 -16 6 5 3
13 -10 22 -12 8 -26 11 -31 8 -6 -3 -10 -1 -10 4 0 6 7 11 15 11 8 0 15 3 15
8 0 4 -23 8 -52 10 -28 1 -49 -1 -45 -4 3 -4 1 -16 -5 -27 -9 -17 -8 -19 6
-14 10 4 16 1 16 -7 0 -8 -10 -16 -22 -19 -30 -8 -19 -16 13 -10 21 4 25 9 21
29 -2 13 -9 24 -15 24 -6 0 -7 3 -3 8 11 10 56 10 49 -1 -3 -4 -11 -6 -19 -3
-8 3 -11 0 -8 -9 3 -8 11 -12 19 -9 14 6 28 -43 14 -52 -5 -3 -9 0 -9 7 0 9
-4 9 -15 -1 -8 -6 -19 -9 -25 -5 -6 4 -10 3 -9 -2 4 -20 -3 -22 -25 -8 -23 16
-25 15 -36 -7 -9 -19 -9 -21 2 -7 7 9 19 14 26 11 18 -6 -16 -31 -42 -32 -14
0 -16 3 -7 14 6 7 12 25 13 40 2 25 18 38 18 15 0 -6 6 -9 12 -7 14 5 15 33 3
61 -4 10 -17 17 -34 16 l-26 -1 24 -7 c14 -4 27 -13 29 -21 5 -13 3 -13 -13 0
-17 14 -18 13 -12 -3 9 -23 -11 -12 -36 20 -23 28 -32 29 -34 2 -2 -16 1 -18
11 -10 10 9 17 5 30 -13 9 -14 16 -33 15 -43 0 -10 -3 -13 -5 -6 -3 7 -12 9
-20 6 -8 -3 -14 0 -14 6 0 6 3 10 8 10 19 -3 23 2 12 16 -11 13 -14 13 -27 -2
-8 -10 -12 -13 -9 -7 3 7 -1 17 -10 24 -12 11 -12 15 -2 21 10 7 9 9 -4 9 -24
0 -30 -15 -13 -30 18 -15 20 -30 3 -30 -6 0 -8 3 -5 7 4 3 0 15 -10 25 -9 10
-12 18 -7 18 5 1 -2 7 -16 16 -23 13 -17 14 70 9 52 -3 137 -5 188 -6z m337
-14 c116 -4 221 -8 235 -11 26 -4 215 -11 405 -14 61 -1 102 -4 93 -7 -21 -5
-23 -24 -6 -41 8 -8 5 -14 -15 -21 -15 -6 -27 -16 -27 -23 0 -9 3 -10 8 -2 4
6 15 10 24 9 10 -2 20 5 23 16 4 10 13 20 21 20 27 3 32 4 40 12 12 12 45 -24
34 -38 -6 -8 -6 -16 3 -26 6 -8 11 -12 10 -10 -2 2 6 11 17 18 18 13 19 40 1
29 -4 -3 -12 4 -19 15 -7 11 -8 19 -2 19 5 0 10 -4 10 -10 0 -5 4 -10 8 -10 5
0 9 6 9 14 0 11 -12 15 -41 14 -23 0 -45 -3 -51 -6 -18 -11 -44 -12 -50 -2 -3
6 1 10 9 10 9 0 16 6 17 13 0 6 2 8 5 2 2 -6 49 -9 119 -7 67 2 122 -1 134 -7
13 -7 24 -32 34 -73 8 -35 31 -124 51 -198 58 -214 127 -481 137 -525 4 -22
19 -77 32 -122 14 -46 21 -81 17 -78 -5 3 -18 43 -31 90 -16 62 -26 85 -38 85
-9 0 -12 3 -6 8 13 9 19 46 7 38 -14 -8 -22 17 -15 46 5 19 3 21 -8 11 -19
-19 -29 -16 -28 10 0 20 1 20 8 3 7 -18 8 -18 14 -2 11 27 9 31 -18 32 -22 2
-30 -6 -26 -28 0 -4 -6 -5 -14 -2 -8 4 -15 10 -15 16 0 5 4 7 9 4 5 -3 12 1
15 10 3 8 14 14 23 12 20 -3 21 8 2 89 -6 29 -15 50 -20 48 -4 -3 -6 4 -4 16
6 33 -4 66 -21 66 -8 0 -14 -4 -14 -8 0 -3 -9 -9 -20 -12 -28 -7 -25 -22 5
-22 14 0 25 4 25 8 0 5 5 5 10 2 20 -12 10 -24 -20 -23 -16 1 -36 -5 -45 -12
-14 -11 -14 -14 1 -24 9 -7 31 -11 50 -10 38 3 46 -10 12 -20 -19 -5 -20 -8
-8 -16 10 -6 16 -6 18 0 2 6 8 10 14 10 6 0 8 -6 5 -14 -3 -7 0 -19 6 -27 7
-7 -1 -5 -17 5 -22 14 -31 15 -40 5 -8 -9 -7 -11 5 -7 8 4 25 -5 40 -20 13
-14 18 -22 10 -17 -9 5 -19 2 -28 -10 -7 -11 -13 -13 -13 -7 0 7 -5 12 -11 12
-6 0 -8 -9 -4 -20 4 -11 2 -20 -4 -20 -6 0 -8 -6 -5 -13 2 -7 -3 -21 -12 -32
-14 -17 -15 -18 -10 -2 7 22 -13 57 -30 50 -6 -2 -11 -12 -9 -21 1 -9 0 -12
-2 -6 -6 18 -43 25 -43 8 0 -8 6 -11 18 -7 9 3 14 3 11 -1 -4 -4 -19 -9 -34
-12 -26 -5 -27 -3 -14 12 13 16 12 16 -11 3 -13 -8 -30 -21 -37 -29 -9 -11
-12 -12 -13 -2 0 7 -4 11 -8 8 -5 -3 -9 1 -9 9 0 11 4 12 14 4 9 -8 13 -8 13
-1 0 10 -30 32 -44 32 -5 0 2 -49 9 -60 13 -21 13 -69 0 -80 -12 -10 -12 -15
1 -36 9 -13 21 -21 27 -17 6 4 8 0 4 -10 -8 -21 0 -22 18 -3 8 7 11 16 8 20
-4 3 8 3 27 0 24 -5 31 -4 26 5 -4 6 -4 11 1 10 4 -1 16 1 26 6 11 4 23 3 29
-3 8 -8 5 -9 -11 -5 -11 3 -21 1 -21 -5 0 -5 9 -12 20 -15 11 -3 19 -11 18
-19 -2 -8 5 -12 17 -10 16 2 17 1 5 -7 -13 -9 -12 -11 1 -16 9 -3 16 -13 16
-22 0 -13 -3 -12 -14 3 -7 10 -27 19 -44 20 -25 1 -28 0 -17 -14 12 -13 11
-14 -9 -2 -12 8 -19 20 -16 29 3 10 -3 7 -15 -6 -25 -28 -32 -29 -25 -3 3 11
12 20 19 20 8 0 14 5 14 10 0 14 -37 13 -42 -1 -2 -6 -16 -13 -31 -14 -15 -2
-25 1 -22 6 3 4 -2 20 -12 35 -15 24 -18 25 -24 8 -7 -18 -8 -18 -8 -1 -1 11
-6 15 -13 11 -7 -4 -8 -3 -4 4 4 7 1 12 -6 13 -10 0 -10 2 0 6 6 2 12 11 12
18 0 7 8 15 18 17 10 3 18 15 19 27 1 14 -3 21 -10 18 -7 -3 -11 -11 -9 -18 3
-12 1 -12 -10 0 -10 11 -10 14 0 18 6 3 10 8 7 13 -3 4 0 21 6 38 8 23 15 29
27 25 9 -3 14 -3 10 2 -4 4 4 16 18 27 19 16 28 17 39 8 15 -13 35 -6 35 13 0
8 -3 8 -11 0 -16 -16 -41 10 -32 33 6 16 5 17 -9 4 -9 -8 -14 -18 -12 -21 2
-4 -3 -12 -11 -19 -13 -11 -15 -9 -11 11 3 13 5 24 6 24 1 0 3 8 5 18 2 10 -3
17 -11 17 -9 0 -12 -5 -9 -10 4 -6 1 -17 -5 -25 -10 -12 -10 -15 1 -15 10 -1
9 -4 -3 -14 -20 -15 -25 -31 -6 -20 7 4 8 3 4 -4 -4 -7 -13 -12 -21 -12 -7 0
-15 -10 -17 -22 -2 -13 -10 -23 -18 -23 -8 0 -20 -7 -27 -15 -7 -8 -13 -10
-13 -4 0 5 5 15 12 22 9 9 9 12 0 12 -7 0 -15 -7 -18 -15 -4 -8 -13 -15 -21
-15 -10 0 -13 -7 -8 -22 5 -18 4 -20 -4 -8 -8 12 -13 12 -23 2 -10 -10 -8 -14
10 -18 12 -4 19 -10 17 -15 -3 -4 -12 -6 -20 -2 -8 3 -15 0 -15 -7 0 -6 3 -9
8 -7 4 3 8 -7 9 -21 0 -15 -2 -29 -7 -32 -4 -3 -25 -30 -45 -60 -33 -50 -35
-55 -20 -67 14 -10 20 -9 32 3 9 9 12 19 6 27 -4 7 3 0 17 -15 19 -21 31 -26
52 -21 25 5 27 3 25 -25 -1 -20 -6 -28 -15 -24 -10 3 -10 8 -3 15 18 18 12 29
-13 23 -15 -4 -28 0 -36 9 -10 12 -16 13 -26 4 -21 -18 -17 -31 9 -24 20 6 21
5 3 -6 -16 -10 -21 -9 -31 5 -7 9 -17 16 -23 16 -11 0 -22 23 -22 46 0 9 4 13
9 9 6 -3 15 4 21 15 12 22 1 27 -18 8 -9 -9 -12 -9 -12 0 0 7 4 12 9 12 5 0
12 7 15 16 4 12 2 15 -9 10 -8 -3 -14 0 -12 6 2 13 -41 19 -49 6 -3 -4 1 -8 8
-8 9 0 9 -3 -2 -10 -9 -6 -18 -6 -25 1 -6 6 1 18 20 34 17 13 25 24 20 25 -6
0 -19 15 -30 33 -22 37 -35 51 -52 54 -7 2 -10 -4 -7 -12 4 -8 10 -13 14 -10
8 5 25 -24 21 -38 -1 -5 3 -6 8 -3 5 4 13 1 17 -5 5 -9 0 -10 -14 -7 -12 4
-24 3 -27 -2 -7 -12 22 -20 43 -13 15 6 15 5 3 -10 -7 -9 -17 -15 -21 -12 -4
3 -10 -5 -13 -16 -6 -24 23 -64 31 -41 5 15 42 16 42 1 0 -5 -5 -7 -11 -4 -6
4 -10 1 -8 -6 3 -28 -1 -50 -10 -45 -5 3 -14 -1 -21 -9 -12 -15 -30 -12 -30 5
0 5 6 7 14 4 10 -4 12 2 9 21 -3 14 -10 28 -16 32 -6 4 -8 -2 -5 -15 4 -12 0
-23 -8 -26 -8 -3 -11 0 -7 10 3 8 0 21 -6 28 -9 11 -9 15 0 18 18 6 18 51 0
65 -14 10 -14 12 2 18 21 9 23 35 2 35 -8 0 -15 5 -15 10 0 15 -16 12 -34 -6
-15 -14 -16 -14 -17 3 -1 13 -3 11 -9 -7 -4 -14 -8 -20 -9 -14 -1 6 -13 10
-28 8 -16 -2 -22 -1 -15 2 6 3 9 10 6 16 -4 6 2 8 16 3 22 -7 22 -7 3 21 -13
20 -19 24 -21 12 -2 -10 -11 -14 -25 -11 -26 5 -50 -26 -37 -48 5 -7 12 -10
17 -6 4 5 1 12 -6 16 -8 5 -9 11 -3 15 5 3 17 -3 27 -14 11 -13 14 -20 6 -20
-7 0 -9 -4 -6 -10 9 -15 -7 -12 -32 5 -12 9 -24 11 -27 6 -4 -5 6 -14 21 -19
l28 -10 -27 -1 c-18 -1 -28 -6 -28 -16 0 -8 5 -15 10 -15 6 0 10 5 10 12 0 6
3 8 7 5 3 -4 12 -2 20 4 7 6 13 8 13 3 0 -5 4 -3 9 5 7 11 11 9 21 -9 10 -20
10 -21 -7 -16 -16 5 -19 2 -17 -16 1 -13 3 -27 3 -32 1 -5 9 -2 18 5 15 12 16
12 10 -3 -3 -9 -1 -19 6 -22 7 -3 0 -3 -15 0 -17 4 -28 2 -28 -5 0 -6 -5 -11
-12 -11 -9 0 -9 3 0 12 17 17 15 33 -3 18 -8 -7 -15 -8 -15 -2 0 5 6 15 14 22
22 18 9 42 -16 29 -11 -6 -27 -7 -36 -4 -27 11 -62 14 -62 5 0 -5 6 -11 13
-14 6 -3 -3 -4 -20 -2 -40 5 -44 -10 -5 -16 35 -5 54 0 47 13 -4 5 0 6 8 3 7
-2 14 -10 14 -17 0 -8 -21 -12 -64 -12 -35 0 -63 4 -63 8 0 5 5 5 10 2 6 -3
10 1 10 10 0 12 -6 15 -20 10 -25 -8 -27 11 -3 37 9 10 11 18 6 18 -6 0 -16
-6 -22 -14 -7 -8 -22 -13 -35 -10 -18 3 -22 -1 -22 -19 1 -15 -4 -22 -16 -21
-10 1 -18 -2 -18 -8 0 -5 -6 -3 -14 4 -8 7 -12 15 -11 17 9 8 -59 55 -83 57
-21 2 -23 1 -12 -7 13 -8 11 -12 -9 -29 -28 -24 -38 -25 -38 -6 0 8 7 12 16 9
10 -4 9 0 -4 10 -11 8 -23 13 -27 11 -5 -3 -8 0 -8 6 0 6 -13 4 -32 -7 -25
-13 -29 -18 -15 -21 9 -2 17 -8 17 -13 0 -6 -4 -7 -10 -4 -16 10 -50 -14 -44
-30 8 -19 -3 -19 -22 -1 -18 19 -18 45 1 52 8 4 15 10 15 16 0 5 -4 6 -10 3
-6 -3 -7 1 -4 9 3 9 1 16 -4 16 -6 0 -12 -10 -14 -21 -3 -21 -3 -21 -23 2 -19
22 -19 23 -1 9 18 -13 19 -13 14 1 -5 13 0 18 20 22 25 5 53 -14 32 -21 -6 -2
-7 -8 -4 -13 3 -6 -2 -19 -12 -30 -9 -10 -14 -22 -9 -27 4 -4 10 -1 12 6 3 6
10 12 17 12 6 0 12 12 11 26 0 41 24 50 74 26 33 -16 41 -18 37 -7 -3 10 1 15
12 15 13 0 14 2 3 9 -8 5 -11 16 -6 30 8 25 18 27 39 6 19 -20 27 -19 19 3 -6
15 -5 15 11 3 9 -8 13 -17 9 -20 -11 -8 -12 -51 -1 -51 4 0 10 11 14 25 3 14
10 25 15 25 6 0 5 -8 -1 -20 -8 -16 -6 -21 11 -31 31 -16 77 -17 83 -2 3 7 1
13 -4 13 -6 0 -10 7 -10 15 0 8 -7 15 -15 15 -8 0 -15 -4 -15 -10 0 -5 -7 -7
-16 -3 -14 5 -13 8 6 18 22 12 72 11 91 -1 12 -7 2 -24 -14 -24 -7 0 -6 4 3
10 12 7 10 9 -7 7 -16 -1 -19 -5 -14 -17 5 -8 6 -22 3 -30 -4 -12 -1 -11 15 3
25 22 29 21 63 -3 22 -16 30 -17 44 -7 17 12 17 14 0 28 -16 12 -17 12 -11 -3
4 -12 2 -18 -8 -18 -19 0 -28 17 -13 24 7 3 3 3 -8 1 -15 -4 -26 2 -37 19 -16
24 -16 25 11 21 15 -2 30 -4 34 -4 5 -1 7 -7 5 -13 -1 -7 5 -12 15 -10 10 1
21 -9 30 -28 13 -31 32 -43 21 -13 -4 11 -3 14 5 9 14 -8 15 -5 6 19 -5 12 -9
13 -14 5 -5 -8 -9 -7 -14 5 -5 14 -2 16 19 11 19 -5 25 -2 25 9 0 9 -4 14 -9
10 -13 -7 -24 12 -15 26 5 8 9 7 14 -1 9 -15 40 -6 40 11 0 8 -5 7 -16 -2 -15
-12 -16 -11 -9 10 l7 25 -29 -25 c-22 -17 -28 -28 -20 -36 7 -10 3 -13 -17
-13 -15 0 -25 4 -22 9 4 5 -9 8 -28 7 -36 -3 -51 11 -36 34 11 18 41 5 34 -15
-7 -17 11 -21 22 -3 4 6 -3 19 -16 30 -23 18 -23 18 -44 -1 -20 -19 -50 -16
-46 5 1 5 -4 10 -11 13 -7 2 -9 -1 -4 -9 5 -8 4 -11 -2 -7 -13 8 -45 -26 -41
-44 5 -21 -26 -21 -52 1 -13 11 -31 18 -40 15 -22 -7 -42 17 -34 39 4 11 1 16
-11 16 -9 0 -13 5 -10 11 5 7 14 4 26 -7 13 -12 16 -20 8 -25 -7 -4 -8 -9 -1
-13 11 -7 25 21 17 34 -3 5 4 15 16 24 12 8 18 19 14 26 -6 9 -9 9 -15 0 -6
-10 -15 -6 -35 14 -14 14 -30 24 -35 21 -5 -3 -12 0 -15 5 -4 6 -19 10 -33 8
-17 -2 -26 2 -24 10 2 14 -7 15 -26 3 -10 -6 -8 -10 10 -15 19 -5 21 -8 8 -17
-13 -9 -13 -10 0 -7 14 4 55 -36 60 -57 3 -16 22 -35 29 -30 4 2 7 -6 6 -18
-2 -20 -14 -27 -16 -9 -2 18 -22 30 -50 28 -28 -2 -58 18 -46 31 4 3 1 15 -4
26 -9 16 -13 17 -20 6 -7 -11 -9 -10 -9 4 0 9 -5 17 -11 17 -6 0 -9 -7 -6 -15
4 -8 2 -17 -4 -21 -13 -7 -51 25 -43 37 3 5 0 9 -6 9 -6 0 -9 4 -6 9 3 5 15 7
26 4 16 -4 18 -8 9 -20 -9 -11 -9 -17 0 -26 10 -9 11 -8 6 5 -4 11 0 18 15 23
20 6 20 8 4 19 -9 7 -14 18 -10 24 5 8 -2 12 -18 12 -16 0 -26 -6 -26 -14 0
-8 -5 -18 -11 -22 -8 -4 -9 1 -4 17 7 21 6 22 -8 11 -11 -10 -16 -10 -19 -1
-3 9 -9 9 -24 1 -16 -10 -17 -11 -2 -12 10 0 15 -5 12 -13 -3 -8 2 -20 10 -27
9 -7 13 -16 10 -21 -8 -13 10 -11 24 3 9 9 12 8 12 -4 0 -14 15 -25 38 -28 4
-1 16 -9 26 -18 18 -16 18 -16 8 3 -9 18 -7 21 11 22 15 2 18 0 8 -6 -9 -6
-10 -11 -3 -15 6 -4 9 -13 6 -21 -4 -8 -11 -12 -17 -8 -5 3 -7 1 -3 -5 3 -6 2
-13 -3 -16 -9 -6 -25 30 -22 48 1 5 -5 3 -14 -4 -20 -16 -48 -23 -39 -9 3 5 0
9 -5 9 -12 0 -9 -35 4 -47 4 -5 5 -2 1 5 -9 15 10 17 19 2 4 -6 1 -17 -5 -25
-10 -12 -9 -15 3 -15 9 0 19 -5 23 -12 5 -8 2 -9 -9 -5 -9 3 -19 2 -22 -3 -3
-5 -12 -7 -21 -3 -12 4 -12 8 -2 22 12 14 11 14 -4 2 -13 -9 -15 -18 -9 -29
11 -19 -5 -56 -20 -46 -6 3 -3 12 8 20 10 7 13 14 6 14 -6 0 -15 -5 -18 -10
-4 -6 -11 -8 -16 -4 -6 3 -3 12 8 20 10 7 14 14 9 14 -5 0 0 11 13 23 20 23
21 25 4 38 -11 9 -14 10 -9 2 4 -7 3 -13 -3 -13 -6 0 -8 -7 -5 -15 4 -8 1 -15
-6 -15 -7 0 -10 -6 -7 -14 3 -8 -1 -17 -10 -20 -10 -4 -14 -2 -10 8 4 11 1 13
-10 9 -10 -4 -14 -2 -9 5 3 6 2 13 -4 17 -5 3 -10 -3 -10 -14 0 -12 4 -21 10
-21 5 0 7 -7 4 -15 -5 -11 -2 -13 10 -9 9 3 16 2 16 -4 0 -6 -5 -12 -11 -14
-6 -2 -8 -14 -4 -31 5 -20 12 -27 24 -23 11 4 10 2 -3 -9 -15 -11 -16 -15 -5
-15 12 0 49 33 49 44 0 2 -11 2 -25 1 -19 -3 -25 1 -25 16 0 24 9 24 26 2 10
-13 13 -14 14 -4 0 11 3 11 15 1 14 -12 13 -16 -6 -36 -18 -19 -19 -23 -6 -31
13 -7 14 -11 1 -27 -7 -11 -17 -16 -21 -12 -4 4 -1 11 7 16 12 7 12 12 2 22
-8 8 -12 8 -12 1 0 -6 -8 -9 -18 -6 -13 3 -23 24 -35 77 -19 81 -135 538 -167
656 -11 41 -22 89 -25 105 -4 25 -3 23 10 -9 8 -21 21 -46 27 -54 10 -13 10
-14 1 -8 -8 4 -13 2 -13 -4 0 -7 6 -10 13 -7 6 2 12 11 11 19 -1 8 5 15 12 15
7 0 10 -5 7 -10 -3 -6 -1 -7 5 -3 7 4 12 2 12 -3 0 -6 4 -11 9 -11 5 0 4 11
-2 24 -8 17 -19 24 -36 23 -33 -3 -41 40 -8 52 29 11 52 -5 36 -25 -9 -11 -7
-15 5 -20 9 -3 16 -12 16 -19 0 -7 4 -15 10 -17 11 -4 -18 -68 -32 -68 -5 0
-6 5 -3 10 3 6 2 10 -2 10 -15 0 -33 -23 -32 -39 0 -11 2 -12 6 -3 2 6 12 12
21 11 11 0 12 -2 4 -6 -6 -2 -9 -9 -6 -14 3 -6 11 -5 20 2 11 9 14 7 14 -10 0
-23 16 -29 23 -8 2 6 7 9 11 6 10 -9 -23 -41 -35 -34 -5 4 -9 1 -9 -4 0 -14 6
-14 31 -1 16 9 21 7 31 -17 6 -15 10 -39 9 -52 -2 -15 1 -21 8 -16 6 3 9 10 7
14 -3 4 1 8 9 8 10 0 14 -10 13 -29 -2 -29 -18 -52 -18 -27 0 7 -7 4 -16 -7
-14 -18 -15 -18 -4 4 10 20 9 24 -10 29 -16 4 -18 8 -9 14 17 10 1 60 -21 67
-12 4 -13 2 -2 -9 21 -23 13 -30 -9 -8 -35 35 -42 4 -19 -86 11 -43 20 -80 20
-83 0 -2 12 -1 28 3 15 4 33 8 40 8 14 0 15 7 2 27 -8 12 -10 12 -15 -2 -4 -9
-13 -14 -21 -11 -8 3 -14 -1 -14 -8 0 -11 -3 -11 -10 1 -5 8 -10 20 -10 25 0
6 5 3 10 -5 7 -11 10 -11 10 -2 0 7 5 10 10 7 6 -4 17 -2 25 5 11 9 16 7 26
-11 10 -19 9 -25 -6 -35 -9 -7 -24 -10 -33 -7 -15 4 -15 3 -2 -6 17 -12 46
-14 53 -3 2 4 2 1 1 -5 -2 -7 2 -13 8 -13 7 0 9 13 5 36 -6 36 -6 36 14 18 12
-10 16 -20 10 -22 -6 -2 -11 -8 -11 -14 0 -7 5 -6 14 1 9 7 17 8 20 2 8 -13
-46 -30 -77 -24 -17 3 -27 1 -27 -6 0 -7 4 -9 10 -6 5 3 17 2 27 -3 12 -7 24
-5 42 7 14 9 22 11 18 4 -4 -6 -3 -14 3 -18 5 -3 10 3 10 13 0 25 26 36 34 15
5 -11 2 -14 -10 -9 -10 4 -14 2 -11 -6 2 -7 11 -11 18 -9 8 2 26 3 42 2 15 -1
27 4 27 9 0 6 -4 8 -10 5 -13 -8 -32 4 -25 16 8 13 45 -8 45 -26 0 -7 5 -17
12 -21 7 -4 8 -3 4 4 -3 6 3 16 14 22 18 10 24 7 21 -12 -1 -10 3 -10 23 -2 9
3 16 14 17 23 0 10 4 7 11 -9 6 -14 10 -31 9 -37 -1 -7 4 -13 10 -13 7 0 9 3
6 7 -4 3 -2 12 4 20 9 10 8 13 -5 13 -9 0 -16 4 -16 8 0 10 22 32 32 32 15 0
8 -19 -9 -23 -17 -4 -17 -5 0 -6 9 0 31 13 49 29 17 17 26 30 21 30 -6 0 -16
-7 -23 -15 -18 -21 -35 -19 -19 3 13 16 13 16 -5 2 -18 -14 -19 -13 -14 2 4
10 1 19 -8 22 -9 3 -12 1 -9 -4 3 -6 -1 -10 -9 -10 -20 0 -21 19 -1 26 8 4 15
11 15 16 0 6 -7 4 -16 -3 -9 -7 -26 -13 -38 -14 -11 0 -20 -6 -18 -12 1 -7 0
-13 -3 -13 -12 0 -50 46 -53 65 -5 24 -1 21 -32 30 -25 7 -25 6 4 -19 16 -14
24 -26 18 -26 -7 0 -12 -5 -12 -11 0 -5 3 -8 8 -6 4 2 17 -5 30 -17 l22 -22
-35 0 c-19 0 -35 4 -35 8 0 4 -5 8 -11 8 -6 0 -8 -8 -4 -19 3 -11 -1 -24 -12
-32 -15 -12 -16 -12 -10 4 4 11 2 17 -7 17 -8 0 -16 3 -19 8 -2 4 -2 1 -1 -5
4 -17 -4 -16 -22 1 -20 21 -17 27 11 22 14 -3 25 0 25 5 0 5 -3 10 -7 10 -42
7 -61 10 -75 10 -10 0 -18 5 -18 10 0 6 4 8 9 5 4 -3 7 10 5 29 -1 20 2 33 7
29 5 -3 9 -12 9 -20 0 -8 5 -14 10 -14 6 0 10 -6 10 -14 0 -8 10 -13 25 -13
20 0 23 2 14 13 -8 10 -8 14 0 14 6 0 11 -4 11 -10 0 -5 7 -7 15 -4 8 4 15 1
15 -5 0 -6 -7 -11 -16 -11 -9 0 -14 -5 -12 -12 6 -16 20 -20 36 -10 10 7 9 16
-2 44 -9 19 -12 38 -9 42 4 3 1 6 -6 6 -7 0 -9 5 -6 11 5 7 13 5 24 -5 10 -9
22 -16 27 -16 5 1 -2 10 -15 20 -16 14 -19 20 -8 20 29 0 27 28 -3 40 -25 10
-28 16 -23 41 4 21 1 30 -11 35 -9 3 -13 10 -10 16 3 5 12 7 20 4 8 -3 11 0 7
10 -7 18 -9 18 -30 -4 -21 -22 -53 -35 -53 -23 0 5 9 11 21 14 13 4 18 10 14
17 -4 7 -1 16 6 21 11 6 11 11 1 21 -20 20 -14 32 8 13 11 -10 17 -22 13 -28
-3 -5 -1 -7 5 -3 6 3 14 1 17 -5 5 -7 14 0 26 17 19 30 46 39 66 22 11 -8 12
-7 7 8 -7 18 -6 18 12 1 16 -15 17 -19 4 -27 -9 -5 -19 -5 -26 0 -6 6 -14 7
-18 3 -4 -4 -12 -1 -17 7 -8 11 -9 10 -4 -7 5 -19 3 -22 -12 -16 -15 6 -16 5
-3 -9 13 -13 16 -14 23 -2 4 8 15 14 24 14 9 0 13 -3 10 -6 -3 -4 -2 -15 3
-25 8 -13 6 -20 -7 -27 -14 -9 -14 -10 6 -17 11 -3 19 -11 15 -16 -3 -5 -14
-3 -26 5 -11 8 -26 12 -33 10 -7 -3 -16 0 -20 6 -4 7 2 14 16 17 l23 6 -24 9
c-12 5 -25 6 -28 3 -3 -3 0 -5 7 -5 7 0 5 -9 -6 -27 -17 -26 -17 -27 0 -20 11
4 17 2 17 -9 0 -11 4 -12 19 -4 26 13 40 13 21 -1 -13 -9 -12 -10 3 -5 9 3 17
1 17 -4 0 -13 -63 -9 -72 4 -5 7 -11 7 -20 -2 -9 -9 -9 -12 5 -12 9 0 17 -3
17 -8 0 -4 22 -8 50 -9 39 0 51 3 55 17 6 18 35 22 46 7 3 -5 9 -1 12 8 4 9 3
14 -2 11 -5 -3 -12 1 -15 9 -4 12 0 14 19 11 14 -3 23 -1 20 5 -4 5 -17 9 -30
9 -18 0 -23 4 -19 15 5 13 9 13 22 3 11 -9 13 -9 9 -1 -4 6 -3 14 3 18 6 4 8
10 5 15 -3 4 2 13 10 20 9 8 15 8 15 2 0 -6 -3 -12 -7 -15 -5 -2 -3 -2 4 -1 6
2 14 -4 17 -13 4 -11 2 -14 -9 -10 -22 9 -29 -12 -11 -32 15 -16 14 -19 -5
-40 -32 -34 -18 -34 19 0 26 25 33 27 38 15 3 -9 13 -16 21 -16 23 0 -14 33
-40 35 -11 1 -23 7 -25 13 -2 7 2 10 10 7 10 -4 14 3 13 24 0 16 -3 27 -7 24
-5 -2 -8 3 -8 12 0 11 -6 15 -17 11 -14 -4 -18 0 -19 19 -2 21 1 24 12 14 10
-8 14 -8 14 0 0 6 4 11 9 11 5 0 8 -7 7 -16 0 -9 6 -19 14 -22 13 -5 13 -3 0
13 -14 17 -13 18 3 12 9 -3 17 -2 17 4 0 6 5 7 12 3 6 -4 8 -3 5 4 -4 5 -16 8
-26 5 -10 -3 -22 0 -25 6 -4 6 -2 11 4 11 6 0 9 4 6 9 -4 5 0 12 6 14 10 4 10
6 1 6 -7 1 -19 -11 -26 -25 -10 -19 -16 -23 -22 -14 -4 7 -2 16 6 21 9 5 0 6
-22 3 -25 -4 -40 -2 -50 9 -10 11 -19 12 -36 4 -13 -6 -23 -14 -23 -19 0 -4
-5 -8 -10 -8 -6 0 -3 11 7 24 10 13 24 21 32 18 8 -3 12 -1 8 4 -3 6 6 11 21
12 15 2 34 4 42 5 8 1 16 -2 17 -8 2 -5 -5 -10 -14 -10 -9 0 -18 -5 -20 -12
-3 -8 3 -11 16 -8 30 6 41 14 41 31 0 8 4 14 10 14 5 0 6 -8 3 -17 -6 -15 -4
-16 9 -5 14 11 17 10 23 -7 3 -12 3 -26 -1 -32 -4 -8 -3 -9 4 -5 17 10 36 -32
22 -49 -8 -10 -7 -13 2 -11 7 0 14 -3 15 -9 1 -5 -6 -9 -17 -9 -11 1 -20 -3
-20 -7 0 -5 5 -9 10 -9 6 0 10 -5 10 -11 0 -6 -7 -9 -15 -5 -9 3 -15 0 -15 -9
0 -8 5 -15 11 -15 5 0 7 -4 4 -10 -3 -6 1 -7 10 -3 12 4 13 8 5 13 -8 5 -9 10
-2 14 6 4 15 -1 20 -9 5 -10 15 -13 26 -9 13 5 16 13 11 33 -4 14 -7 36 -7 49
0 14 -5 22 -12 19 -15 -6 -17 23 -3 41 8 11 5 12 -19 7 -19 -4 -25 -4 -16 3
11 7 11 10 -3 16 -20 7 -11 24 19 35 13 6 -10 8 -61 7 -47 -1 -83 3 -83 8 0 6
-5 5 -12 -2 -15 -15 -32 -16 -23 -2 3 6 1 10 -5 10 -6 0 -13 -7 -16 -15 -4 -8
-11 -12 -17 -8 -5 3 -7 1 -4 -4 4 -6 -3 -19 -15 -29 -12 -11 -18 -14 -15 -8 7
13 -17 27 -27 17 -11 -11 -6 -24 7 -17 6 4 9 4 5 -1 -4 -4 -3 -14 3 -22 17
-20 1 -15 -21 7 -18 18 -18 21 -3 35 9 9 24 14 34 12 12 -3 16 0 12 9 -3 9 2
14 13 15 12 0 14 3 6 6 -7 3 -19 -1 -27 -7 -11 -9 -15 -9 -15 -1 0 6 -4 11
-10 11 -5 0 -7 -7 -4 -15 4 -8 2 -15 -4 -15 -5 0 -8 10 -7 23 3 28 4 29 13 23
4 -2 102 -7 217 -11z m2670 5 c-3 -5 -12 -10 -18 -10 -7 0 -6 4 3 10 19 12 23
12 15 0z m-3255 -40 c4 0 6 -10 2 -22 -5 -21 -6 -21 -13 -2 -4 10 -7 30 -7 44
1 23 1 23 5 3 2 -13 8 -23 13 -23z m3237 -22 c-3 -7 -5 -2 -5 12 0 14 2 19 5
13 2 -7 2 -19 0 -25z m-3183 -16 c2 -4 -6 -8 -20 -8 -13 0 -24 4 -24 8 0 4 9
8 19 8 11 0 22 -4 25 -8z m292 -15 c8 3 14 1 14 -5 0 -14 -28 -23 -35 -11 -4
5 -11 7 -16 4 -13 -9 -11 9 4 24 10 10 13 9 15 -3 2 -8 10 -12 18 -9z m180
-22 c-2 -5 -9 -9 -15 -7 -6 1 -11 -2 -11 -8 0 -5 7 -10 15 -10 13 0 15 -17 6
-47 -1 -2 -1 -6 0 -9 0 -3 -12 -15 -26 -26 -24 -18 -25 -22 -11 -37 19 -20 20
-31 5 -31 -5 0 -8 4 -5 8 2 4 -5 14 -17 22 -20 12 -21 12 -9 -3 11 -13 11 -20
1 -39 -8 -15 -14 -18 -17 -10 -2 7 1 19 8 27 9 10 7 16 -6 23 -15 8 -13 11 12
24 19 9 28 20 26 32 -2 11 1 15 7 11 6 -3 11 -1 11 5 0 6 -8 10 -17 8 -10 -2
-17 -11 -15 -20 3 -20 -14 -33 -23 -18 -4 6 0 19 9 29 20 22 20 35 1 51 -19
16 -20 31 -1 24 8 -3 17 -1 20 4 8 13 57 10 52 -3z m-316 -43 c8 -2 20 -8 25
-14 7 -8 6 -9 -2 -4 -9 5 -13 0 -12 -16 0 -13 3 -17 6 -10 2 6 9 12 15 12 7 0
6 -5 -1 -14 -7 -9 -8 -17 -3 -20 13 -8 21 15 18 48 -2 14 0 26 5 26 13 0 21
-40 10 -54 -6 -7 -8 -16 -5 -19 4 -3 -5 -9 -20 -13 l-26 -6 22 -18 c19 -15 24
-15 36 -4 17 17 23 18 20 2 -4 -18 -42 -32 -46 -18 -3 8 -8 7 -18 -1 -11 -9
-14 -8 -14 4 0 13 -43 33 -63 28 -18 -4 4 17 23 22 14 3 20 0 20 -10 0 -13 3
-13 15 -3 24 20 6 32 -34 25 -42 -8 -54 -22 -39 -48 8 -16 12 -17 20 -6 8 11
9 10 4 -3 -3 -10 -1 -18 4 -18 6 0 10 5 10 10 0 6 7 10 16 10 14 0 14 -3 4
-15 -12 -14 -10 -15 13 -11 14 2 31 -1 36 -8 9 -10 3 -12 -23 -11 -18 1 -39 6
-46 10 -10 6 -12 4 -7 -8 3 -10 2 -17 -3 -17 -6 0 -11 5 -11 10 -1 6 -2 13 -3
18 0 4 -11 18 -23 31 -20 22 -22 51 -2 51 5 0 8 5 7 11 -2 6 3 14 11 17 8 3
11 0 7 -7 -4 -6 -1 -11 8 -11 19 0 20 11 4 29 -10 11 -10 14 0 18 6 3 12 10
12 16 -1 7 -9 2 -20 -11 -11 -13 -24 -21 -30 -17 -16 10 -12 19 17 37 26 16
29 16 38 0 5 -9 17 -18 25 -20z m470 -49 c0 -7 -5 -13 -11 -13 -5 0 -7 5 -3
12 5 7 2 9 -9 5 -9 -3 -18 0 -21 9 -3 8 -2 12 3 9 5 -3 13 0 17 6 7 12 24 -7
24 -28z m2531 -56 c-10 -9 -11 -8 -5 6 3 10 9 15 12 12 3 -3 0 -11 -7 -18z
m-2906 -37 c-16 -18 -16 -19 8 -25 17 -5 24 -12 20 -21 -4 -10 0 -13 13 -8 11
3 7 -2 -8 -12 -27 -18 -31 -36 -14 -62 6 -10 1 -11 -18 -6 -21 5 -26 3 -26
-12 0 -17 -1 -16 -14 1 -8 11 -12 24 -9 28 3 5 8 5 12 -1 4 -7 12 -6 24 3 12
9 15 15 7 20 -8 5 -5 12 7 22 17 13 17 14 1 9 -11 -3 -18 0 -18 7 0 9 -3 8 -9
-1 -5 -8 -7 1 -5 25 1 21 7 37 13 36 5 -2 13 7 17 20 4 13 9 17 12 9 2 -7 -4
-22 -13 -32z m-48 -32 c7 -1 10 -5 7 -10 -3 -5 -10 -6 -15 -2 -6 3 -5 -3 3
-15 7 -12 18 -19 23 -17 6 2 12 -5 12 -15 1 -10 -2 -19 -8 -19 -5 0 -9 5 -9
11 0 5 -4 8 -9 5 -19 -12 -41 6 -37 30 3 13 0 26 -5 30 -16 9 -23 -4 -11 -19
12 -14 7 -27 -10 -27 -5 0 -6 5 -3 10 3 6 -1 10 -9 10 -21 0 -20 10 2 26 9 8
26 11 37 8 11 -3 25 -6 32 -6z m2940 -10 c-3 -8 -6 -5 -6 6 -1 11 2 17 5 13 3
-3 4 -12 1 -19z m-3074 -64 c-6 -16 -23 -19 -23 -4 0 6 5 10 11 10 6 0 3 7 -5
16 -23 22 -20 30 3 10 11 -10 17 -24 14 -32z m33 -36 c5 -7 3 -8 -6 -3 -10 6
-12 4 -7 -8 4 -11 2 -14 -9 -10 -11 4 -12 9 -3 19 14 17 16 17 25 2z m347 -82
c10 4 17 1 17 -6 0 -9 -12 -11 -39 -7 -27 3 -44 0 -54 -10 -13 -13 -18 -13
-43 1 l-29 16 38 -4 c20 -2 37 0 37 5 0 11 44 16 51 6 3 -4 13 -5 22 -1z m-35
-34 c2 -7 -2 -10 -12 -6 -9 3 -16 11 -16 16 0 13 23 5 28 -10z m1230 -5 c9
-10 6 -13 -13 -13 -19 0 -22 3 -13 13 6 7 12 13 13 13 1 0 7 -6 13 -13z
m-1411 -72 c8 -9 13 -19 9 -22 -7 -7 -36 16 -36 28 0 13 10 11 27 -6z m240
-27 c7 -6 10 -15 6 -21 -3 -6 -1 -7 5 -3 15 9 34 -2 26 -15 -4 -6 -15 -4 -29
5 -18 12 -25 12 -28 3 -2 -7 -9 -2 -16 11 -12 22 -11 23 11 17 18 -5 20 -4 8
4 -8 6 -23 8 -32 5 -12 -3 -18 0 -18 10 0 13 5 14 27 5 15 -6 33 -15 40 -21z
m2634 9 c-10 -9 -11 -8 -5 6 3 10 9 15 12 12 3 -3 0 -11 -7 -18z m-2730 -98
c10 -19 9 -20 -13 -14 -20 7 -21 6 -9 -9 11 -13 17 -14 28 -5 8 7 12 18 9 26
-4 10 2 13 22 10 18 -3 26 -9 24 -21 -2 -9 2 -16 8 -16 14 0 12 -16 -5 -33 -8
-8 -11 -18 -7 -22 4 -4 -4 -4 -18 0 -14 4 -33 16 -43 26 -20 22 -47 25 -47 7
0 -10 -2 -10 -9 0 -4 8 -11 13 -15 13 -24 -3 -28 0 -16 14 9 11 9 15 1 15 -7
0 -9 5 -6 10 10 17 21 11 31 -17 l10 -28 19 33 c11 17 20 32 22 32 1 0 7 -9
14 -21z m285 -24 c8 -8 22 -11 31 -8 10 4 14 2 10 -4 -4 -6 -21 -9 -39 -7 -18
1 -37 3 -41 3 -7 1 13 30 21 31 2 0 10 -7 18 -15z m1005 4 c20 -10 20 -11 2
-24 -10 -7 -15 -17 -11 -20 4 -4 14 0 23 9 21 21 22 20 35 -6 10 -21 10 -22
-3 -5 -10 12 -17 14 -22 8 -3 -6 -14 -15 -23 -20 -14 -7 -18 -5 -19 10 -1 10
3 21 8 25 6 3 3 12 -8 20 -22 16 -10 18 18 3z m-315 -15 c-4 -9 -1 -23 5 -30
9 -11 8 -18 -1 -29 -7 -8 -9 -15 -4 -15 5 0 5 -4 -1 -8 -5 -4 -17 -16 -25 -26
-14 -18 -13 -19 4 -13 16 6 17 5 6 -8 -17 -21 -47 -19 -53 4 -3 12 1 18 12 17
9 -1 17 4 18 9 1 6 -7 9 -18 8 -12 -2 -19 3 -19 15 1 18 30 63 30 46 0 -5 9
-10 20 -10 27 0 20 20 -8 24 -12 2 -20 7 -17 12 3 4 14 6 25 3 11 -3 20 0 20
6 0 6 3 11 6 11 3 0 3 -7 0 -16z m169 -14 c-6 -10 51 -31 61 -22 4 4 4 1 0 -6
-5 -7 -14 -11 -22 -8 -8 3 -14 -1 -14 -9 0 -23 19 -18 52 15 16 17 32 30 36
30 3 0 1 -5 -6 -12 -16 -16 -15 -31 1 -22 6 4 4 -2 -6 -14 -11 -11 -16 -27
-12 -34 3 -7 0 -5 -8 5 -8 9 -20 17 -26 17 -8 0 -7 -5 3 -16 30 -29 19 -33
-14 -4 -26 23 -48 27 -31 6 9 -10 9 -16 1 -21 -6 -4 -14 -4 -17 -1 -4 3 0 6 7
6 10 0 11 3 3 11 -15 15 -33 2 -27 -19 5 -16 5 -16 -6 1 -11 17 -35 23 -43 10
-2 -5 -2 -2 -1 5 2 6 0 12 -5 12 -4 0 -8 7 -8 15 0 8 4 12 8 9 4 -2 10 0 14 6
3 5 12 10 18 10 7 0 4 -7 -5 -14 -23 -17 -23 -22 1 -22 11 0 17 5 14 10 -3 5
-1 6 6 2 13 -8 41 10 41 27 0 7 -4 7 -12 -1 -7 -7 -17 -12 -22 -12 -6 0 -4 5
4 10 13 8 12 11 -5 24 -16 12 -21 12 -23 1 -4 -19 -33 -28 -46 -15 -8 8 -6 9
6 5 11 -4 20 0 27 13 7 14 18 18 36 15 13 -3 23 -9 20 -13z m33 -5 c-3 -3 -9
2 -12 12 -6 14 -5 15 5 6 7 -7 10 -15 7 -18z m-628 -1 c0 -8 -4 -12 -10 -9 -5
3 -10 10 -10 16 0 5 5 9 10 9 6 0 10 -7 10 -16z m-560 -8 c0 -2 -7 -7 -16 -10
-8 -3 -12 -2 -9 4 6 10 25 14 25 6z m680 -33 c0 -7 -5 -13 -11 -13 -5 0 -8 4
-5 8 3 5 -10 4 -29 -2 -19 -6 -35 -14 -35 -19 0 -9 32 -5 40 4 7 9 50 -9 50
-21 0 -5 -9 -10 -21 -10 -11 0 -18 4 -14 9 3 6 -4 9 -15 8 -11 -1 -20 -4 -20
-8 0 -15 -35 -1 -38 14 -2 10 6 19 22 23 13 3 32 15 42 25 13 15 19 17 26 7 4
-7 8 -19 8 -25z m-410 -3 c0 -5 -8 -10 -17 -10 -15 0 -16 2 -3 10 19 12 20 12
20 0z m315 0 c-3 -5 -10 -10 -16 -10 -5 0 -9 5 -9 10 0 6 7 10 16 10 8 0 12
-4 9 -10z m771 3 c-3 -3 -20 -7 -38 -9 -18 -2 -28 0 -21 4 13 8 67 13 59 5z
m-72 -25 c1 -7 5 -18 9 -24 7 -12 -21 -29 -31 -19 -3 3 0 5 6 5 7 0 12 5 12
11 0 5 -4 7 -10 4 -5 -3 -10 -1 -10 4 0 6 6 11 13 12 9 0 9 2 -1 6 -6 2 -9 9
-6 15 7 11 15 5 18 -14z m-1374 -41 c0 -6 -9 -1 -20 11 -11 12 -20 27 -20 34
1 15 40 -29 40 -45z m134 27 c10 -26 7 -36 -9 -30 -18 7 -20 -5 -3 -22 9 -9 9
-15 0 -24 -7 -7 -12 -17 -12 -22 1 -6 10 0 20 13 13 14 20 18 21 10 0 -11 2
-11 6 -1 2 6 8 12 13 12 4 0 3 -11 -3 -25 -7 -14 -15 -25 -19 -25 -5 0 -8 -4
-8 -9 0 -5 10 -7 23 -5 12 2 17 2 10 -2 -7 -3 -9 -13 -5 -22 5 -15 4 -15 -12
1 -9 9 -23 17 -29 17 -7 0 -3 -7 7 -15 11 -8 15 -15 9 -15 -6 0 -16 6 -22 13
-8 11 -6 18 9 32 11 10 20 23 20 28 0 6 -8 3 -18 -6 -10 -10 -22 -14 -25 -10
-4 3 -7 -4 -7 -17 0 -13 -3 -20 -7 -17 -3 4 -13 1 -22 -5 -11 -9 -10 -5 2 9
11 12 16 27 12 32 -9 15 -25 14 -21 -1 1 -7 1 -10 -1 -6 -3 5 -13 4 -22 -2
-27 -14 -23 21 6 43 13 10 21 22 18 27 -3 4 2 10 10 14 8 3 15 0 15 -7 0 -7 5
-4 11 6 6 9 14 15 20 12 5 -4 9 -1 9 4 0 6 -4 11 -10 11 -5 0 -10 5 -10 10 0
16 17 12 24 -6z m1026 -4 c0 -5 -5 -10 -11 -10 -5 0 -7 5 -4 10 3 6 8 10 11
10 2 0 4 -4 4 -10z m-905 -9 c-3 -5 3 -11 12 -13 14 -3 12 -7 -12 -20 -16 -8
-36 -13 -44 -10 -8 2 -11 0 -8 -5 4 -6 0 -19 -9 -29 -14 -18 -15 -18 -8 6 4
14 7 33 6 42 0 10 4 21 10 24 7 5 9 1 5 -9 -3 -10 -2 -17 3 -17 6 0 10 4 10
10 0 5 7 7 15 3 9 -3 15 -2 14 3 -2 14 0 24 7 24 3 0 3 -4 -1 -9z m1180 -1
c-3 -5 2 -10 12 -11 14 0 14 -2 3 -6 -8 -4 -21 -15 -30 -26 -14 -17 -17 -17
-28 -4 -11 13 -10 15 7 10 12 -3 22 0 22 6 1 6 3 16 4 21 1 6 3 12 4 15 0 3 4
5 7 5 3 0 2 -4 -1 -10z m-1037 -12 c-8 -23 29 -48 62 -42 17 4 36 1 44 -5 10
-9 16 -9 21 -1 4 6 15 8 26 5 14 -5 21 0 29 19 5 14 14 26 20 26 15 0 12 -8
-12 -35 -16 -16 -37 -25 -67 -28 -40 -4 -71 -25 -71 -48 0 -17 35 -18 53 -2
18 16 20 16 14 2 -4 -12 1 -16 19 -16 13 0 24 5 24 11 0 6 5 3 11 -7 6 -10 8
-21 5 -24 -3 -4 -6 -1 -6 5 0 21 -28 1 -34 -24 -5 -19 -11 -24 -26 -19 -12 4
-20 2 -20 -4 0 -6 5 -11 10 -11 6 0 10 -5 10 -10 0 -6 -8 -5 -19 2 -11 7 -17
16 -15 20 3 4 1 8 -5 8 -16 0 -18 -23 -2 -42 8 -9 19 -14 25 -11 6 4 5 -1 -3
-10 -8 -10 -9 -17 -3 -17 6 0 14 5 17 10 3 6 10 10 16 10 5 0 1 -8 -8 -18 -13
-13 -22 -16 -31 -9 -7 5 -10 12 -7 15 6 7 -15 32 -27 32 -5 0 -6 -4 -3 -10 3
-5 1 -10 -5 -10 -7 0 -9 7 -6 16 4 9 1 23 -5 30 -13 16 -13 16 21 19 13 1 26
7 28 14 2 7 9 6 19 -4 17 -18 33 -11 33 13 0 15 -2 15 -10 2 -9 -13 -14 -8
-12 11 1 4 -9 6 -22 5 -14 0 -22 -6 -19 -13 6 -15 -6 -16 -27 -3 -10 6 -11 10
-2 10 17 0 15 15 -4 35 -15 15 -18 14 -40 -6 -13 -12 -35 -21 -49 -21 -14 0
-28 -5 -31 -9 -3 -5 -10 -7 -15 -4 -5 4 -14 3 -20 -1 -19 -12 13 -24 34 -12
13 6 22 7 29 0 7 -7 4 -10 -7 -9 -10 1 -20 -4 -22 -11 -3 -8 2 -10 14 -6 14 5
15 4 4 -4 -8 -6 -21 -8 -30 -5 -12 3 -11 0 3 -11 25 -20 8 -21 -18 -1 -10 8
-24 12 -30 8 -6 -3 -8 -3 -4 2 4 4 2 15 -5 24 -10 14 -10 14 5 3 15 -12 17
-11 15 6 0 12 -6 18 -14 15 -7 -3 -13 0 -13 7 0 6 4 9 8 6 5 -3 20 1 35 9 23
12 25 11 20 -3 -5 -14 -3 -14 15 2 14 12 22 14 22 7 0 -8 5 -7 16 3 8 9 20 13
26 10 6 -4 8 2 4 17 -3 13 -3 18 0 12 3 -7 11 -13 17 -13 5 0 7 3 4 7 -4 3 -1
13 6 21 10 13 9 14 -3 7 -21 -13 -40 -15 -40 -4 0 5 6 9 14 9 8 0 18 5 22 12
4 6 3 8 -3 5 -6 -4 -14 0 -17 9 -9 23 -7 34 5 34 6 0 9 -5 7 -12z m327 -9 c-7
-21 -6 -21 16 -5 31 21 42 20 30 -2 -7 -13 -6 -23 1 -30 9 -9 9 -15 -1 -24
-10 -11 -11 -9 -5 7 5 15 4 17 -5 9 -7 -6 -14 -20 -15 -30 -2 -11 -8 -20 -14
-20 -7 -1 -16 -2 -22 -3 -5 0 -7 -8 -3 -17 4 -11 8 -12 13 -4 14 22 17 -5 4
-30 -13 -25 -14 -25 -14 -2 0 12 -5 22 -12 22 -6 0 -9 3 -5 6 10 10 -32 44
-48 38 -15 -6 -22 -25 -7 -23 19 3 33 -2 27 -11 -3 -6 -15 -5 -31 2 -20 10
-27 9 -35 -3 -5 -8 -9 -10 -9 -5 0 12 48 55 54 48 3 -3 6 0 6 8 0 9 3 10 14 1
11 -9 15 -8 20 5 10 25 7 33 -16 56 -21 21 -21 21 -1 16 12 -3 27 -2 34 3 23
14 31 10 24 -12z m270 1 c3 -5 2 -10 -4 -10 -5 0 -13 5 -16 10 -3 6 -2 10 4
10 5 0 13 -4 16 -10z m182 4 c-3 -3 -12 -4 -19 -1 -8 3 -5 6 6 6 11 1 17 -2
13 -5z m-1002 -14 c-3 -5 -14 -10 -23 -10 -15 0 -15 2 -2 10 20 13 33 13 25 0z
m103 -16 c-28 -14 -38 -34 -18 -34 6 0 10 4 10 9 0 14 48 19 61 7 9 -8 10 -7
6 7 -5 12 -3 16 4 11 6 -4 15 0 20 7 4 7 11 10 16 6 4 -5 1 -12 -6 -16 -8 -5
-11 -17 -7 -28 8 -26 -14 -46 -34 -31 -13 8 -12 9 2 5 9 -4 19 1 22 10 4 11 2
14 -9 10 -8 -4 -17 -2 -20 4 -9 13 -27 0 -22 -15 3 -7 -4 -18 -16 -26 -17 -10
-22 -10 -25 0 -3 8 -7 9 -11 2 -3 -6 -7 7 -7 28 -1 30 3 40 20 48 33 16 44 13
14 -4z m838 -2 c-10 -2 -22 0 -28 6 -6 6 0 7 19 4 21 -5 23 -7 9 -10z m-1131
-2 c-3 -5 -1 -18 4 -27 8 -15 11 -15 12 -3 1 8 1 21 0 28 -1 6 2 12 7 12 18 0
20 -13 6 -36 -9 -13 -13 -29 -9 -36 4 -7 -3 -2 -14 11 -21 24 -26 42 -14 54
10 10 15 8 8 -3z m999 -5 c-25 -19 -38 -19 -22 0 7 8 19 14 27 15 11 0 9 -4
-5 -15z m66 -29 c0 -5 -7 -1 -15 10 -8 10 -14 24 -14 29 0 6 6 1 14 -9 8 -11
15 -24 15 -30z m39 22 c8 3 11 0 7 -7 -11 -17 -24 -13 -36 12 -9 19 -9 20 2 6
7 -9 19 -14 27 -11z m295 4 c2 -4 -5 -9 -17 -9 -17 -2 -19 0 -7 7 18 12 18 12
24 2z m96 -12 c0 -5 -5 -10 -11 -10 -5 0 -7 5 -4 10 3 6 8 10 11 10 2 0 4 -4
4 -10z m-1530 -52 c0 17 20 15 42 -5 17 -15 19 -15 38 2 19 18 20 17 20 -3 0
-14 -5 -20 -14 -16 -11 4 -13 0 -9 -17 4 -13 8 -18 11 -11 3 10 7 10 18 1 8
-7 17 -9 21 -5 3 3 1 6 -6 6 -7 0 -9 5 -5 11 4 8 9 7 15 -2 14 -23 10 -28 -22
-27 -21 1 -33 7 -36 18 -4 14 -13 17 -39 15 -21 -2 -34 1 -34 8 0 7 -5 6 -11
-3 -10 -13 -10 -13 -6 0 2 8 -2 21 -10 29 -13 12 -14 11 -8 -10 4 -13 10 -30
12 -36 3 -7 1 -13 -5 -13 -5 0 -12 13 -15 29 -3 16 -9 41 -13 57 l-7 28 31
-35 c17 -19 32 -28 32 -21z m285 24 c-8 -8 -25 10 -19 20 4 6 9 5 15 -3 4 -7
6 -15 4 -17z m377 -7 c-3 -5 -7 -4 -10 3 -2 7 -8 12 -13 12 -4 0 -6 -8 -3 -17
5 -17 5 -17 -8 -1 -13 15 -15 15 -27 0 -11 -16 -11 -15 -6 2 4 14 1 17 -12 12
-12 -5 -15 -4 -8 3 25 24 103 12 87 -14z m508 25 c-8 -5 -10 -10 -4 -10 7 0
15 -7 18 -16 5 -14 4 -15 -9 -4 -12 10 -15 10 -15 -1 0 -12 -2 -12 -9 -1 -7
11 -9 11 -14 -2 -4 -9 -12 -16 -19 -15 -10 0 -10 2 0 6 6 2 12 9 12 15 0 6 -7
7 -16 4 -9 -3 -12 -2 -9 5 4 6 13 8 20 5 8 -3 19 2 25 10 7 8 18 14 24 14 6 0
4 -5 -4 -10z m303 -3 c2 -7 -6 -26 -19 -42 -17 -20 -22 -23 -17 -10 6 18 5 19
-10 6 -15 -12 -17 -12 -11 3 4 10 12 15 20 12 16 -6 39 20 24 29 -5 3 -10 1
-10 -6 0 -7 -3 -10 -6 -6 -7 7 4 27 16 27 4 0 10 -6 13 -13z m-387 -25 c-2 -1
-14 -5 -26 -7 -12 -2 -20 -2 -17 2 4 3 -1 12 -11 19 -14 10 -10 10 20 1 20 -6
35 -13 34 -15z m154 18 c0 -5 -4 -10 -10 -10 -5 0 -10 5 -10 10 0 6 5 10 10
10 6 0 10 -4 10 -10z m-695 -20 c-3 -5 -11 -10 -16 -10 -6 0 -7 5 -4 10 3 6
11 10 16 10 6 0 7 -4 4 -10z m292 -14 l20 -23 -28 -1 c-16 0 -29 3 -29 8 0 5
7 7 15 4 8 -4 15 -1 15 5 0 6 -4 11 -10 11 -5 0 -10 5 -10 10 0 15 4 13 27
-14z m90 2 c-3 -8 -6 -5 -6 6 -1 11 2 17 5 13 3 -3 4 -12 1 -19z m376 15 c3
-5 -6 -9 -20 -10 -19 -1 -22 1 -12 8 17 11 26 11 32 2z m-1028 -13 c-4 -6 -11
-8 -16 -5 -5 4 -9 2 -9 -4 0 -5 6 -11 13 -14 7 -2 8 -8 3 -13 -5 -5 -11 -4
-13 4 -3 6 -9 9 -15 6 -6 -4 -5 2 1 15 7 11 19 21 27 21 8 0 12 -5 9 -10z
m1266 -9 c-8 -5 -10 -14 -6 -22 6 -11 5 -11 -5 -2 -11 10 -11 15 0 28 7 8 15
13 19 10 3 -3 -1 -10 -8 -14z m-1073 -5 c-12 -9 -14 -16 -7 -23 8 -8 8 -16 0
-30 -9 -16 -10 -15 -11 10 0 17 -4 26 -11 22 -6 -4 -8 -13 -5 -21 3 -8 -1 -14
-9 -14 -27 0 -15 26 25 53 29 20 43 22 18 3z m432 -13 c0 -20 -3 -24 -9 -14
-6 10 -10 10 -16 1 -12 -19 11 -35 30 -20 8 7 18 10 22 6 3 -3 1 -6 -6 -6 -7
0 -11 -6 -8 -14 9 -22 -5 -28 -25 -9 -28 25 -32 9 -5 -21 21 -23 26 -24 31
-10 4 9 9 14 13 10 9 -9 -28 -46 -46 -45 -12 0 -11 2 4 8 16 7 17 9 4 17 -9 5
-20 17 -26 27 -8 16 -11 16 -39 -10 -26 -24 -27 -28 -10 -31 10 -2 23 1 30 8
8 8 6 10 -9 5 -16 -6 -17 -5 -5 4 22 16 29 13 27 -9 -1 -10 -3 -17 -5 -15 -3
2 -13 0 -22 -5 -19 -10 -47 10 -33 23 3 4 1 7 -4 7 -6 0 -13 -6 -15 -12 -4
-10 -10 -10 -29 0 -13 7 -16 10 -7 8 26 -8 122 48 115 67 -2 8 32 56 41 57 1
0 2 -12 2 -27z m343 2 c-3 -9 -8 -14 -10 -11 -3 3 -2 9 2 15 9 16 15 13 8 -4z
m77 5 c0 -5 -7 -7 -15 -4 -8 4 -15 8 -15 10 0 2 7 4 15 4 8 0 15 -4 15 -10z
m-390 -10 c0 -5 -2 -10 -4 -10 -3 0 -8 5 -11 10 -3 6 -1 10 4 10 6 0 11 -4 11
-10z m200 0 c0 -5 -2 -10 -4 -10 -3 0 -8 5 -11 10 -3 6 -1 10 4 10 6 0 11 -4
11 -10z m83 -6 c-5 -14 -1 -16 25 -12 18 2 32 2 32 -2 0 -4 15 -11 33 -17 17
-5 21 -8 7 -6 -80 14 -95 12 -148 -12 -30 -14 -77 -47 -104 -75 -30 -31 -54
-47 -63 -44 -8 4 -12 10 -9 16 3 5 12 7 19 4 13 -5 34 13 70 59 11 13 25 25
32 25 7 0 10 7 7 18 -4 10 -3 13 3 6 5 -8 16 -8 33 -2 17 6 21 11 12 17 -10 6
-9 11 3 21 13 11 16 11 13 0 -2 -7 4 -15 12 -18 8 -2 12 -1 8 3 -4 5 -3 14 3
22 15 18 20 16 12 -3z m157 5 c0 -5 -4 -7 -10 -4 -5 3 -10 2 -10 -3 0 -6 -8
-13 -17 -16 -15 -6 -15 -4 2 14 20 22 35 26 35 9z m143 -3 c4 -10 1 -13 -8 -9
-8 3 -12 9 -9 14 7 12 11 11 17 -5z m-1348 -36 c-9 -41 -17 -33 -9 9 4 17 9
30 11 27 3 -2 2 -19 -2 -36z m529 32 c3 -5 -1 -9 -9 -9 -8 0 -12 4 -9 9 3 4 7
8 9 8 2 0 6 -4 9 -8z m56 -28 c0 -8 -5 -14 -11 -14 -6 0 -9 6 -6 14 3 7 0 20
-6 27 -10 11 -9 11 6 0 9 -7 17 -20 17 -27z m-535 16 c3 -5 1 -10 -4 -10 -6 0
-11 5 -11 10 0 6 2 10 4 10 3 0 8 -4 11 -10z m494 -17 c9 20 10 19 4 -7 -5
-25 -3 -27 15 -22 11 4 23 3 26 -2 6 -10 -38 -8 -69 3 -19 6 -19 6 -2 -8 16
-14 16 -14 -8 -14 -24 0 -25 1 -11 22 13 20 13 24 1 29 -8 3 -15 11 -15 17 0
7 11 0 24 -14 l24 -25 11 21z m91 17 c0 -5 -5 -10 -11 -10 -5 0 -7 5 -4 10 3
6 8 10 11 10 2 0 4 -4 4 -10z m30 -5 c-7 -9 -15 -13 -17 -11 -7 7 7 26 19 26
6 0 6 -6 -2 -15z m582 6 c-17 -10 -17 -22 -1 -32 8 -5 1 -7 -19 -7 -18 1 -35
5 -38 10 -3 5 -2 8 3 7 19 -3 43 2 42 9 -3 15 1 22 14 22 9 0 9 -2 -1 -9z
m202 -44 c8 -32 -7 -29 -25 5 -8 16 -8 19 1 13 9 -5 10 -1 6 16 -5 17 -4 19 2
9 5 -8 12 -28 16 -43z m-1591 23 c3 -11 1 -23 -4 -26 -5 -3 -9 4 -9 15 0 10
-6 22 -12 24 -8 4 -7 6 3 6 9 1 19 -8 22 -19z m253 2 c1 -7 0 -8 -3 -2 -2 5
-12 10 -21 10 -13 -1 -10 -7 11 -25 15 -14 24 -25 19 -25 -5 0 -15 7 -22 15
-7 8 -19 15 -27 15 -13 0 -13 3 -3 15 15 18 42 16 46 -3z m339 8 c-3 -5 -1
-10 4 -10 12 0 10 -27 -2 -47 -4 -6 1 -19 10 -29 16 -16 16 -17 1 -12 -9 4
-19 2 -21 -5 -2 -7 -8 -8 -13 -4 -5 4 -2 12 6 18 13 8 13 10 0 19 -10 6 -11
10 -2 10 6 0 12 5 12 11 0 6 -10 8 -22 5 l-23 -6 23 11 c12 7 22 16 22 21 0 5
-6 6 -12 2 -9 -5 -9 -2 1 9 15 18 26 23 16 7z m949 -11 c2 -2 -26 -4 -63 -4
-53 0 -63 2 -47 10 19 10 99 5 110 -6z m-1334 -29 c0 -9 -47 -6 -56 3 -5 4 -1
5 9 1 20 -7 22 6 5 26 -7 7 -1 5 14 -6 15 -10 28 -21 28 -24z m-245 20 c3 -5
1 -10 -4 -10 -6 0 -11 5 -11 10 0 6 2 10 4 10 3 0 8 -4 11 -10z m662 -12 c-3
-8 -6 -5 -6 6 -1 11 2 17 5 13 3 -3 4 -12 1 -19z m-517 2 c0 -5 -5 -10 -11
-10 -5 0 -7 5 -4 10 3 6 8 10 11 10 2 0 4 -4 4 -10z m326 -24 c1 -8 -7 -22
-17 -32 -10 -9 -19 -13 -19 -9 0 5 -7 0 -16 -11 -15 -18 -15 -17 -1 6 8 14 19
25 25 25 6 0 14 3 18 8 4 4 2 7 -5 7 -7 0 -9 5 -6 10 3 6 -1 10 -10 10 -10 0
-13 -5 -9 -12 4 -7 3 -8 -4 -4 -17 10 -15 24 6 29 20 4 35 -6 38 -27z m334 30
c0 -3 -4 -8 -10 -11 -5 -3 -10 -1 -10 4 0 6 5 11 10 11 6 0 10 -2 10 -4z m239
-44 c14 -11 13 -11 -6 -2 -13 6 -23 18 -22 28 0 14 2 14 6 2 4 -8 13 -21 22
-28z m-1036 11 c-4 -9 -2 -14 3 -10 5 3 10 -2 11 -11 1 -9 2 -32 4 -49 1 -18
6 -33 10 -33 5 0 6 -7 3 -15 -4 -8 -2 -15 2 -15 5 0 9 -13 10 -29 1 -16 5 -37
9 -47 8 -19 11 -29 13 -51 1 -7 11 -13 23 -13 11 0 18 4 14 9 -3 5 -1 12 5 16
5 3 10 -1 10 -11 0 -12 6 -15 25 -12 13 3 22 1 19 -3 -6 -10 -104 -12 -104 -3
0 4 -16 67 -35 141 -38 148 -39 153 -25 153 5 0 6 -7 3 -17z m957 -3 c-6 -11
-13 -20 -16 -20 -2 0 0 9 6 20 6 11 13 20 16 20 2 0 0 -9 -6 -20z m-849 1 c5
8 9 9 9 4 0 -16 -39 -46 -65 -51 -15 -3 -25 2 -29 12 -5 14 -4 15 9 4 12 -10
15 -10 16 1 0 11 2 11 6 1 4 -10 8 -10 19 -1 12 10 12 14 -3 26 -16 13 -16 13
6 3 19 -10 25 -9 32 1z m1099 5 c0 -2 -7 -7 -16 -10 -8 -3 -12 -2 -9 4 6 10
25 14 25 6z m150 -11 c0 -2 -26 -3 -57 -3 -42 1 -50 3 -28 7 28 6 85 3 85 -4z
m178 3 c-17 -10 -48 -10 -48 0 0 5 14 9 30 9 20 0 26 -3 18 -9z m-1294 -11 c7
-7 15 -19 19 -27 4 -12 6 -12 6 2 1 9 5 19 10 23 6 3 9 -3 8 -14 0 -10 -10
-24 -20 -31 -11 -6 -16 -7 -13 -2 3 5 -3 20 -14 32 -11 13 -20 25 -20 27 0 7
12 2 24 -10z m101 3 c3 -6 -1 -7 -9 -4 -18 7 -21 14 -7 14 6 0 13 -4 16 -10z
m30 1 c3 -5 2 -12 -3 -15 -5 -3 -9 1 -9 9 0 17 3 19 12 6z m1090 -1 c-27 -12
-43 -12 -25 0 8 5 22 9 30 9 10 0 8 -3 -5 -9z m-1291 -25 c-5 -11 -10 -12 -25
-2 -16 10 -22 9 -30 -3 -9 -13 -10 -13 -7 0 4 14 46 31 60 23 4 -2 5 -10 2
-18z m531 15 c3 -5 1 -10 -4 -10 -6 0 -11 5 -11 10 0 6 2 10 4 10 3 0 8 -4 11
-10z m-196 -21 c-16 -10 -23 -4 -14 10 3 6 11 8 17 5 6 -4 5 -9 -3 -15z m235
-16 c-19 -14 -47 -6 -37 10 5 8 8 8 10 0 3 -7 10 -10 18 -7 8 3 11 13 8 22 -4
15 -3 15 6 2 8 -11 7 -18 -5 -27z m252 22 c9 -8 11 -15 6 -15 -5 0 -15 7 -22
15 -7 8 -9 15 -6 15 4 0 14 -7 22 -15z m-780 -7 c4 -6 3 -8 -3 -5 -6 4 -13 1
-16 -7 -8 -21 4 -28 23 -11 14 13 16 12 18 -10 1 -13 -4 -27 -10 -31 -8 -5 -9
-2 -5 9 3 10 2 17 -4 17 -5 0 -12 -6 -15 -13 -3 -8 -11 -14 -19 -14 -10 0 -11
5 -4 19 6 12 6 18 -1 18 -5 0 -2 9 7 20 20 23 20 23 29 8z m129 2 c-3 -5 -12
-10 -18 -10 -7 0 -6 4 3 10 19 12 23 12 15 0z m49 -5 c-4 -8 -8 -15 -10 -15
-2 0 -4 7 -4 15 0 8 4 15 10 15 5 0 7 -7 4 -15z m281 5 c-3 -5 -1 -10 6 -10 7
0 10 -3 6 -6 -9 -9 -28 6 -22 17 4 5 8 9 11 9 3 0 2 -4 -1 -10z m-85 -10 c0
-5 -2 -10 -4 -10 -3 0 -8 5 -11 10 -3 6 -1 10 4 10 6 0 11 -4 11 -10z m300 6
c0 -9 -30 -14 -35 -6 -4 6 3 10 14 10 12 0 21 -2 21 -4z m-740 -16 c0 -5 -4
-10 -10 -10 -5 0 -10 5 -10 10 0 6 5 10 10 10 6 0 10 -4 10 -10z m279 -13 c-9
-6 -23 -25 -33 -40 -10 -16 -20 -26 -23 -23 -3 3 -12 -2 -20 -12 -13 -15 -13
-15 -3 6 6 12 15 20 20 17 5 -3 14 5 21 17 16 31 41 59 47 53 3 -3 -1 -11 -9
-18z m387 11 c5 -7 3 -8 -6 -3 -10 6 -12 4 -6 -11 5 -14 4 -16 -5 -7 -6 6 -8
16 -5 22 9 14 13 14 22 -1z m-737 -1 c-2 -1 -12 -9 -22 -16 -15 -12 -17 -12
-11 3 3 9 13 16 22 16 8 0 13 -1 11 -3z m273 -5 c-8 -5 -10 -16 -6 -27 4 -10
3 -16 -2 -13 -11 8 -50 -19 -41 -28 4 -4 14 -1 23 7 16 13 16 12 3 -8 -12 -20
-15 -21 -29 -7 -13 14 -13 17 4 30 13 9 15 14 6 14 -8 0 -4 8 10 20 13 11 28
20 34 20 7 0 6 -4 -2 -8z m148 -13 c0 -6 -4 -7 -10 -4 -5 3 -10 11 -10 16 0 6
5 7 10 4 6 -3 10 -11 10 -16z m50 9 c0 -11 -12 -10 -30 2 -12 7 -10 9 8 7 12
0 22 -5 22 -9z m100 2 c0 -5 -2 -10 -4 -10 -3 0 -8 5 -11 10 -3 6 -1 10 4 10
6 0 11 -4 11 -10z m273 -5 c-3 -9 -8 -14 -10 -11 -3 3 -2 9 2 15 9 16 15 13 8
-4z m52 -3 c-3 -3 -11 0 -18 7 -9 10 -8 11 6 5 10 -3 15 -9 12 -12z m-360 -1
c-9 -8 -36 -10 -30 -2 2 4 11 8 20 8 8 0 13 -3 10 -6z m60 -1 c3 -5 1 -10 -4
-10 -6 0 -11 5 -11 10 0 6 2 10 4 10 3 0 8 -4 11 -10z m990 0 c3 -5 1 -10 -4
-10 -6 0 -11 5 -11 10 0 6 2 10 4 10 3 0 8 -4 11 -10z m-1512 -23 c4 3 7 -2 7
-12 0 -17 -1 -17 -20 0 -11 10 -20 23 -20 29 0 6 7 3 14 -6 7 -10 16 -15 19
-11z m127 8 c11 -13 10 -14 -4 -9 -9 3 -16 10 -16 15 0 13 6 11 20 -6z m164
-1 c3 -8 2 -12 -4 -9 -6 3 -10 10 -10 16 0 14 7 11 14 -7z m36 1 c11 -13 10
-14 -4 -9 -9 3 -16 10 -16 15 0 13 6 11 20 -6z m247 -7 c-3 -8 -6 -5 -6 6 -1
11 2 17 5 13 3 -3 4 -12 1 -19z m-172 2 c-3 -5 -12 -10 -18 -10 -7 0 -6 4 3
10 19 12 23 12 15 0z m235 0 c0 -5 -2 -10 -4 -10 -3 0 -8 5 -11 10 -3 6 -1 10
4 10 6 0 11 -4 11 -10z m83 -9 c-4 -3 -11 -10 -15 -15 -4 -4 -6 1 -5 12 1 12
6 18 15 15 7 -3 10 -9 5 -12z m127 14 c0 -1 -14 -20 -31 -41 -17 -22 -38 -56
-46 -76 -13 -32 -20 -38 -45 -38 -18 0 -27 4 -23 10 4 6 15 8 25 5 15 -5 23 3
39 36 11 23 18 46 15 50 -3 5 1 9 9 9 13 0 32 26 29 41 0 3 6 6 14 6 8 0 14
-1 14 -2z m-291 -28 c0 -9 -2 -8 -6 1 -2 6 -10 9 -15 6 -7 -4 -8 -2 -4 5 9 13
26 5 25 -12z m366 13 c-3 -5 -12 -10 -18 -10 -7 0 -6 4 3 10 19 12 23 12 15 0z
m295 -10 c0 -5 -2 -10 -4 -10 -3 0 -8 5 -11 10 -3 6 -1 10 4 10 6 0 11 -4 11
-10z m-1265 -10 c3 -5 1 -10 -4 -10 -6 0 -11 5 -11 10 0 6 2 10 4 10 3 0 8 -4
11 -10z m53 -21 c-6 -4 -17 -1 -25 6 -20 20 -16 24 11 12 15 -7 20 -14 14 -18z
m37 21 c3 -5 1 -10 -4 -10 -6 0 -11 5 -11 10 0 6 2 10 4 10 3 0 8 -4 11 -10z
m325 -5 c11 -13 10 -14 -4 -9 -9 3 -16 10 -16 15 0 13 6 11 20 -6z m-100 1 c0
-2 -12 -11 -27 -20 l-28 -17 24 20 c23 21 31 25 31 17z m265 -7 c11 -16 1 -19
-13 -3 -7 8 -8 14 -3 14 5 0 13 -5 16 -11z m-67 -30 c-3 -8 -7 -3 -11 10 -4
17 -3 21 5 13 5 -5 8 -16 6 -23z m-498 13 c0 -5 -7 -9 -15 -9 -8 0 -15 4 -15
9 0 4 7 8 15 8 8 0 15 -4 15 -8z m67 -7 c0 -8 -4 -12 -9 -9 -5 3 -6 10 -3 15
9 13 12 11 12 -6z m270 9 c-3 -3 -12 -4 -19 -1 -8 3 -5 6 6 6 11 1 17 -2 13
-5z m457 -3 c4 -5 -3 -7 -14 -4 -23 6 -26 13 -6 13 8 0 17 -4 20 -9z m-754
-36 c0 -8 -2 -15 -4 -15 -2 0 -6 7 -10 15 -3 8 -1 15 4 15 6 0 10 -7 10 -15z
m117 -7 c-3 -8 -6 -5 -6 6 -1 11 2 17 5 13 3 -3 4 -12 1 -19z m180 6 c14 6 15
4 6 -5 -7 -7 -19 -9 -30 -4 -10 5 -22 7 -26 6 -5 -1 -6 3 -2 9 5 8 11 8 21 -1
7 -6 22 -8 31 -5z m282 -10 c-6 -8 -15 -12 -18 -8 -3 4 0 9 7 11 6 3 9 10 6
15 -4 7 -2 8 5 4 9 -6 9 -11 0 -22z m-206 -2 c2 8 8 9 13 4 5 -5 4 -11 -3 -13
-18 -7 -3 -33 19 -33 15 0 18 5 13 21 -5 15 -4 19 4 15 6 -4 11 -14 11 -22 0
-16 12 -18 26 -4 7 7 11 6 11 -3 0 -11 -17 -14 -64 -15 -37 0 -63 4 -63 10 0
5 7 8 15 4 21 -8 19 4 -7 33 -22 24 -22 25 -2 8 17 -14 23 -15 27 -5z m291 2
c3 -8 2 -12 -4 -9 -6 3 -10 10 -10 16 0 14 7 11 14 -7z m-129 -4 c3 -6 -1 -7
-9 -4 -18 7 -21 14 -7 14 6 0 13 -4 16 -10z m-595 -10 c0 -5 -5 -10 -11 -10
-5 0 -7 5 -4 10 3 6 8 10 11 10 2 0 4 -4 4 -10z m154 -16 c7 -19 2 -18 -19 6
-16 17 -16 20 -3 15 9 -4 19 -13 22 -21z m137 9 c13 -17 13 -17 -6 -3 -11 8
-22 16 -24 17 -2 2 0 3 6 3 6 0 17 -8 24 -17z m-81 -3 c0 -5 -5 -10 -11 -10
-5 0 -7 5 -4 10 3 6 8 10 11 10 2 0 4 -4 4 -10z m174 -15 c3 -9 0 -15 -9 -15
-9 0 -12 6 -9 15 4 8 7 15 9 15 2 0 5 -7 9 -15z m176 -1 c0 -8 -5 -12 -10 -9
-6 4 -8 11 -5 16 9 14 15 11 15 -7z m148 -1 c-21 -2 -55 -2 -75 0 -21 2 -4 4
37 4 41 0 58 -2 38 -4z m-440 -19 c-5 -5 -178 -7 -183 -2 -3 3 23 6 57 7 35 1
64 3 65 5 2 1 17 1 33 -2 17 -2 30 -6 28 -8z m52 6 c0 -5 -10 -10 -22 -9 -22
0 -22 1 -3 9 11 5 21 9 23 9 1 1 2 -3 2 -9z"/>
<path d="M6504 5810 c-64 -26 -109 -140 -101 -255 8 -125 55 -220 123 -253 31
-14 39 -15 76 -2 24 9 53 30 70 51 28 35 30 41 34 167 3 75 1 147 -5 169 -12
45 -52 102 -84 120 -25 14 -82 16 -113 3z"/>
<path d="M5111 5522 c-37 -10 -69 -29 -99 -58 -42 -41 -44 -46 -39 -85 12 -90
94 -118 175 -59 l42 30 0 95 c0 106 4 102 -79 77z"/>
<path d="M7310 5517 c-90 -30 -127 -59 -140 -108 -14 -52 11 -109 53 -120 35
-9 90 6 122 34 24 20 26 30 29 120 2 53 3 97 3 96 -1 0 -31 -10 -67 -22z"/>
<path d="M5490 4480 c0 -7 24 -20 36 -20 13 0 1 19 -16 23 -11 3 -20 2 -20 -3z"/>
<path d="M5510 4365 c14 -17 30 -20 30 -4 0 5 -4 7 -10 4 -5 -3 -10 -1 -10 4
0 6 -5 11 -11 11 -8 0 -8 -5 1 -15z"/>
<path d="M5882 4472 c9 -11 13 -11 19 0 6 9 9 6 9 -10 0 -20 -3 -21 -20 -12
-14 7 -20 7 -20 0 0 -5 7 -10 15 -10 8 0 15 -5 15 -11 0 -5 -4 -8 -9 -5 -5 3
-12 -1 -15 -10 -10 -27 0 -27 22 0 26 34 39 33 17 0 -12 -19 -14 -29 -6 -34 7
-3 9 -14 6 -22 -5 -12 -1 -14 20 -10 20 3 25 9 22 24 -4 12 -1 18 6 15 7 -2
12 -9 12 -15 0 -6 6 -17 13 -23 10 -10 15 -10 25 0 10 11 9 13 -1 7 -7 -5 -15
2 -21 17 -5 13 -17 27 -26 31 -22 8 -27 8 -21 -3 6 -10 -19 -23 -27 -14 -8 8
27 40 39 36 19 -7 27 16 12 34 -9 12 -9 15 0 9 7 -4 12 -2 12 6 0 9 3 9 10 -2
5 -8 10 -10 10 -5 0 6 4 4 9 -4 6 -9 14 -11 26 -4 12 7 14 13 6 17 -6 4 -11 2
-11 -5 0 -8 -4 -8 -15 1 -9 7 -31 15 -51 17 l-36 4 21 -30 c21 -29 21 -29 1
-24 -11 3 -23 16 -26 28 -4 16 -12 22 -29 21 -18 -1 -21 -4 -13 -14z m68 -102
c0 -5 -5 -10 -11 -10 -5 0 -7 5 -4 10 3 6 8 10 11 10 2 0 4 -4 4 -10z"/>
<path d="M6047 4455 c-17 -24 -19 -24 -43 -9 -22 15 -24 15 -18 0 3 -9 12 -16
20 -16 8 0 14 -5 14 -11 0 -6 -9 -9 -20 -6 -29 7 -25 -2 6 -13 15 -6 22 -14
18 -22 -5 -8 -2 -9 9 -5 9 3 19 2 22 -3 4 -7 13 -6 25 0 19 10 27 0 36 -49 4
-21 3 -22 -10 -12 -8 7 -13 18 -10 26 3 7 1 16 -5 20 -6 3 -11 1 -11 -5 0 -8
-6 -8 -21 0 -11 7 -23 9 -27 6 -9 -9 5 -18 31 -20 19 -1 23 -4 15 -14 -8 -9
-14 -10 -25 0 -11 9 -17 9 -25 -3 -8 -11 -9 -11 -4 4 4 14 1 16 -19 11 -15 -4
-25 -2 -25 5 0 6 -7 8 -15 5 -10 -4 -13 -13 -9 -26 4 -14 2 -18 -5 -14 -6 4
-11 14 -11 23 0 12 -3 13 -14 4 -11 -9 -15 -8 -20 5 -3 9 -3 20 0 26 4 6 1 9
-5 7 -7 -3 -12 -8 -12 -12 1 -4 1 -14 1 -22 0 -19 74 -57 94 -49 18 7 22 24 6
24 -5 0 -10 -4 -10 -10 0 -5 -4 -10 -9 -10 -5 0 -7 9 -4 19 5 20 31 18 45 -3
4 -6 12 -6 21 2 22 19 28 -9 6 -30 -17 -16 -18 -16 -23 0 -4 13 -4 13 -3 -2 2
-24 27 -34 27 -11 0 9 4 14 9 10 5 -3 12 4 16 15 7 21 25 28 25 9 0 -5 5 -7
10 -4 6 3 10 1 10 -4 0 -6 -10 -12 -22 -12 -20 -1 -21 -2 -4 -6 12 -3 25 2 33
13 14 18 15 18 29 0 16 -23 19 -40 4 -31 -5 3 -10 1 -10 -5 0 -6 -5 -8 -12 -4
-7 4 -8 3 -4 -5 4 -6 -2 -25 -14 -41 -12 -17 -19 -36 -17 -43 3 -6 10 3 17 20
7 19 17 30 23 26 5 -3 7 -1 3 5 -10 16 11 25 31 13 10 -6 12 -11 6 -11 -7 0
-13 -5 -13 -11 0 -8 5 -7 16 2 14 12 14 14 -3 27 -13 11 -15 16 -5 19 10 4 10
8 1 19 -9 11 -9 18 -1 26 9 9 12 9 12 -1 0 -7 4 -10 9 -7 5 3 12 -1 15 -10 3
-8 2 -13 -2 -10 -4 2 -9 -4 -9 -15 -1 -11 5 -23 13 -26 16 -6 19 -24 3 -20 -6
1 -14 -4 -16 -11 -4 -11 -1 -12 14 -3 13 7 20 21 21 43 1 36 -23 82 -38 73 -6
-4 -10 -1 -10 4 0 6 9 11 19 11 10 0 21 6 24 13 3 8 24 23 48 34 26 12 38 23
31 27 -7 4 -12 2 -12 -3 0 -16 -16 -13 -34 5 -19 18 -22 4 -3 -15 10 -11 9
-13 -6 -8 -11 4 -16 3 -12 -3 11 -18 -14 -11 -32 9 -18 19 -18 19 -30 -6 -10
-21 -10 -24 3 -19 19 7 18 -9 -1 -28 -9 -8 -16 -18 -15 -21 1 -17 -1 -18 -12
-7 -8 8 -8 15 2 27 11 13 10 15 -3 10 -8 -4 -18 -2 -22 4 -3 6 -1 11 4 11 6 0
11 5 11 11 0 6 -7 9 -15 5 -10 -3 -15 1 -15 13 0 11 -6 21 -12 24 -7 2 -9 8
-5 13 4 5 12 2 16 -5 7 -11 11 -9 20 8 15 27 27 27 34 0 3 -12 10 -19 14 -16
5 3 15 2 23 -3 11 -7 20 -3 30 11 15 19 95 35 84 17 -7 -11 3 -10 26 2 16 8
18 8 14 -5 -3 -8 -10 -13 -14 -10 -4 3 -11 -2 -14 -11 -8 -20 35 -58 46 -41 5
8 8 7 8 -4 0 -26 -12 -30 -27 -9 -16 22 -38 26 -49 8 -5 -7 -3 -8 5 -3 7 4 20
-1 32 -14 25 -26 26 -50 2 -29 -10 8 -29 21 -43 30 -24 15 -27 14 -50 -5 l-25
-20 23 8 c21 6 23 4 18 -12 -5 -14 1 -23 20 -33 14 -8 32 -26 39 -40 20 -36
17 -11 -3 30 -13 25 -23 34 -37 32 -16 -3 -17 -1 -7 11 13 16 56 11 46 -4 -3
-5 -2 -9 3 -8 19 3 27 -2 14 -10 -10 -7 -11 -13 -2 -27 8 -13 11 -14 9 -4 -2
8 8 30 21 48 25 36 23 89 -4 78 -8 -3 -17 -1 -20 5 -4 5 1 12 9 15 9 3 13 10
10 15 -3 5 1 9 8 9 10 0 9 3 -2 10 -8 5 -11 12 -8 15 12 12 29 -6 23 -24 -6
-21 19 -46 37 -36 7 4 5 0 -5 -8 -11 -9 -14 -18 -8 -21 6 -4 7 -14 4 -23 -4
-11 -3 -14 6 -9 7 5 10 14 7 22 -3 7 -1 16 5 20 6 3 8 12 5 20 -3 7 -1 16 4
19 6 4 10 -3 10 -14 0 -11 -4 -23 -10 -26 -6 -4 -5 -11 3 -20 8 -9 16 -10 25
-3 8 7 12 7 12 0 0 -6 7 -9 15 -6 12 5 13 10 4 20 -8 10 -16 11 -30 3 -18 -9
-19 -7 -13 18 8 33 21 43 43 35 13 -5 13 -3 -2 12 -9 10 -15 21 -13 24 2 4
-39 8 -92 9 -53 1 -91 -2 -83 -6 9 -6 8 -10 -7 -13 -16 -4 -19 -2 -15 11 3 12
1 11 -11 -3 -9 -11 -16 -16 -16 -12 0 5 -6 3 -14 -3 -11 -10 -20 -10 -36 -1
-12 6 -25 9 -28 5 -3 -3 4 -8 16 -12 12 -3 22 -9 22 -13 0 -16 -43 4 -47 21
-3 11 -9 16 -14 13 -5 -3 -6 3 -2 13 6 16 5 17 -12 3 -11 -9 -16 -10 -11 -2 5
9 -3 12 -31 12 -29 -1 -42 -7 -56 -25z m73 0 c7 -8 9 -19 5 -25 -10 -16 -25
-2 -19 18 5 16 5 16 -6 0 -6 -10 -21 -24 -33 -33 -19 -14 -20 -16 -3 -13 10 2
21 -3 23 -9 6 -18 -18 -16 -42 3 -24 18 -25 14 5 44 29 29 54 35 70 15z m305
-5 c-8 -13 8 -13 21 0 5 5 15 6 22 1 10 -6 10 -10 -3 -21 -13 -11 -15 -10 -9
6 4 15 1 14 -16 -5 -17 -20 -23 -22 -30 -11 -9 15 -2 40 12 40 5 0 6 -4 3 -10z
m-208 -103 c-6 -19 -23 -18 -23 2 0 11 5 17 14 14 7 -3 11 -10 9 -16z m68 -7
c3 -5 1 -10 -4 -10 -6 0 -11 5 -11 10 0 6 2 10 4 10 3 0 8 -4 11 -10z m-65
-94 c0 -3 -4 -8 -10 -11 -5 -3 -10 -1 -10 4 0 6 5 11 10 11 6 0 10 -2 10 -4z"/>
<path d="M6065 4439 c-11 -16 -1 -19 13 -3 7 8 8 14 3 14 -5 0 -13 -5 -16 -11z"/>
<path d="M6184 4465 c10 -8 22 -12 27 -10 4 3 9 1 11 -4 1 -5 12 -3 23 6 19
14 18 15 -12 11 -18 -3 -33 -1 -33 4 0 4 -8 8 -17 8 -17 -1 -16 -2 1 -15z"/>
<path d="M5830 4460 c0 -6 7 -10 15 -10 8 0 15 2 15 4 0 2 -7 6 -15 10 -8 3
-15 1 -15 -4z"/>
<path d="M6665 4450 c-3 -5 3 -10 15 -10 12 0 18 -4 15 -11 -4 -6 -14 -8 -24
-5 -9 4 -5 -3 9 -13 l25 -20 6 22 c3 12 4 28 1 35 -5 14 -38 16 -47 2z"/>
<path d="M6723 4423 c-2 -43 -6 -47 -32 -33 -29 15 -26 4 5 -25 22 -20 24 -26
11 -31 -8 -3 -24 -1 -35 5 -15 8 -21 8 -25 -2 -4 -13 -57 65 -57 85 0 9 3 9
10 -2 5 -8 12 -12 15 -9 3 4 -1 12 -10 19 -12 10 -16 9 -21 -3 -3 -9 -13 -13
-25 -10 -15 4 -22 0 -26 -16 -3 -13 -11 -20 -19 -17 -22 8 -16 -12 6 -24 16
-9 20 -8 20 5 0 8 4 15 10 15 5 0 7 -8 3 -17 -7 -19 -5 -18 17 11 12 16 12 18
1 11 -10 -5 -12 -4 -7 3 10 17 26 15 26 -2 0 -8 5 -16 11 -18 7 -2 4 -10 -7
-18 -11 -9 -15 -10 -10 -2 9 15 -4 15 -25 -1 -18 -14 -14 -37 6 -37 8 0 16 -4
19 -9 8 -13 -22 -7 -35 6 -6 6 -18 9 -25 6 -8 -3 -14 -1 -14 5 0 6 6 12 13 15
7 2 8 8 3 13 -5 5 -11 4 -13 -4 -3 -6 -9 -10 -14 -6 -5 3 -9 1 -9 -5 0 -5 4
-13 10 -16 6 -4 5 -13 -2 -25 -7 -10 -16 -16 -20 -13 -5 2 -4 11 2 18 6 7 7
21 3 31 -6 16 -8 14 -13 -10 -3 -16 -12 -32 -20 -34 -13 -4 -13 -3 -2 11 8 9
11 21 7 27 -10 17 -21 11 -22 -12 -1 -13 -7 -24 -13 -26 -5 -2 -8 -8 -4 -13 3
-5 0 -9 -5 -9 -6 0 -11 5 -11 11 0 8 -5 8 -15 -1 -9 -8 -15 -9 -15 -2 0 6 5
14 10 17 6 3 10 12 10 18 -1 21 -25 -27 -25 -50 -1 -27 4 -29 19 -8 9 13 11
11 11 -10 0 -20 -4 -24 -19 -19 -10 3 -22 1 -26 -5 -3 -7 -14 -9 -23 -5 -9 3
-15 10 -12 14 3 4 -3 14 -12 21 -15 12 -16 12 -10 -3 6 -18 -7 -23 -43 -18 -8
1 -4 -7 10 -19 14 -11 20 -20 14 -21 -5 0 -16 6 -23 13 -11 10 -13 10 -7 0 4
-7 3 -13 -3 -13 -6 0 -7 -7 -4 -17 4 -11 3 -14 -5 -9 -15 9 -62 -22 -62 -41 0
-9 9 -4 25 13 l25 27 25 -23 c17 -16 21 -26 14 -31 -6 -4 -9 -12 -5 -18 5 -7
1 -9 -8 -5 -9 3 -16 2 -16 -3 0 -19 36 -10 46 12 9 19 8 26 -7 39 -27 22 -24
51 4 52 16 1 23 -4 23 -17 0 -13 -5 -18 -15 -14 -11 4 -10 0 3 -14 15 -17 16
-23 6 -36 -7 -8 -9 -15 -5 -15 9 0 44 42 45 53 0 5 -4 6 -9 3 -10 -6 -25 24
-16 32 2 3 11 -1 20 -8 10 -8 15 -9 15 -1 0 6 -5 11 -11 11 -7 0 0 10 15 21
28 22 48 21 21 -1 -17 -14 -20 -30 -4 -30 5 0 7 5 4 10 -3 6 -1 10 4 10 6 0
11 -5 11 -11 0 -5 5 -7 10 -4 14 9 12 -8 -3 -29 -7 -9 -21 -19 -32 -20 -12 -2
-19 -10 -17 -19 2 -12 -2 -15 -13 -11 -10 4 -15 2 -13 -6 2 -7 -5 -14 -15 -15
-26 -5 -34 -15 -18 -24 8 -5 10 -14 6 -22 -6 -9 -10 -7 -16 9 -8 20 -49 28
-49 9 0 -5 7 -7 15 -3 8 3 15 1 15 -4 0 -6 -5 -10 -12 -10 -18 0 -3 -10 22
-15 13 -3 28 -9 33 -14 5 -5 17 -7 26 -4 14 6 14 4 -2 -14 -13 -15 -27 -19
-52 -16 -38 4 -46 -10 -15 -27 25 -13 26 -37 3 -43 -17 -4 -17 -5 -1 -6 21 -1
43 35 28 44 -5 3 -10 10 -10 16 0 18 15 7 37 -26 15 -24 18 -37 11 -42 -8 -4
-5 -9 8 -13 27 -10 44 -1 44 22 0 18 -1 18 -16 4 -21 -22 -27 -20 -14 4 6 11
15 20 20 20 6 0 10 8 10 18 0 10 3 13 8 6 4 -6 14 -10 23 -9 30 5 42 -10 29
-35 -7 -12 -8 -20 -2 -16 5 3 17 -3 27 -14 16 -18 16 -20 2 -20 -10 0 -17 5
-17 11 0 5 -4 8 -9 5 -5 -3 -14 1 -20 8 -8 10 -9 16 -1 21 17 11 11 25 -11 25
-11 0 -17 -5 -14 -10 4 -6 12 -8 18 -4 7 3 4 -1 -6 -9 -16 -14 -16 -15 -1 -21
9 -4 14 -9 11 -13 -4 -3 -1 -13 6 -21 10 -13 9 -15 -11 -10 -16 5 -25 1 -29
-9 -5 -14 -8 -13 -21 3 -13 18 -14 18 -8 -3 9 -29 -12 -40 -32 -18 -16 17 -16
17 1 12 24 -9 22 20 -3 33 -11 6 -18 15 -15 20 3 5 -3 8 -12 8 -33 -3 -68 11
-81 32 -11 17 -10 23 3 36 17 17 21 49 5 39 -5 -3 -10 -13 -10 -21 0 -8 -4
-14 -10 -14 -14 0 -12 11 6 35 13 17 17 18 37 6 21 -13 21 -13 4 5 -13 14 -21
16 -34 8 -32 -20 -37 -39 -19 -74 20 -42 21 -42 -9 -28 -19 9 -22 14 -14 25 8
9 8 13 1 13 -6 0 -9 13 -7 30 2 17 0 28 -5 25 -5 -3 -11 -1 -15 5 -3 5 -14 10
-23 9 -14 0 -14 -2 -2 -6 8 -4 20 -12 27 -19 10 -9 8 -13 -7 -17 -13 -3 -17
-1 -13 9 3 9 -2 14 -13 14 -14 0 -16 -2 -6 -9 8 -4 12 -12 10 -17 -1 -5 7 -13
20 -19 12 -5 22 -13 22 -18 0 -4 -4 -5 -10 -2 -5 3 -10 0 -10 -7 0 -9 -3 -9
-10 2 -8 11 -9 8 -4 -13 5 -24 4 -28 -11 -25 -10 2 -20 -3 -23 -11 -3 -8 0
-11 7 -7 6 4 11 2 11 -3 0 -15 -13 -14 -29 2 -10 10 -11 8 -5 -7 4 -12 4 -17
-2 -13 -6 3 -10 -2 -11 -12 -1 -17 1 -17 33 -2 22 10 34 22 34 36 0 16 2 17
10 5 15 -23 12 -40 -7 -41 -11 0 -13 -3 -5 -6 6 -2 10 -9 7 -14 -11 -16 9 -39
25 -29 13 8 12 10 -3 10 -10 0 -15 5 -12 10 4 6 11 7 17 4 7 -5 8 -2 2 7 -4 8
-7 24 -6 36 2 11 -2 24 -7 28 -14 8 -14 35 0 35 5 0 8 -4 5 -8 -3 -5 5 -20 17
-32 23 -25 31 -50 16 -50 -5 0 -9 8 -9 17 0 9 -3 14 -6 10 -9 -8 6 -48 16 -42
5 3 10 0 12 -7 3 -9 6 -9 12 0 4 7 3 12 -3 12 -6 0 -8 7 -5 15 10 24 21 17 26
-15 3 -22 1 -30 -11 -30 -11 0 -10 -4 5 -16 10 -8 12 -12 4 -8 -13 7 -13 5 -1
-9 7 -9 19 -17 25 -16 6 0 5 3 -2 6 -10 4 -9 10 5 26 10 11 12 17 6 13 -7 -4
-14 -4 -14 1 -6 34 -5 52 1 48 4 -3 11 7 14 20 4 14 11 23 16 20 6 -4 8 -10 5
-15 -3 -5 0 -20 6 -34 9 -19 9 -29 0 -40 -10 -12 -8 -16 11 -22 13 -4 28 -9
33 -9 6 -1 15 -3 20 -5 19 -5 30 -7 45 -9 13 -1 13 -3 0 -10 -8 -6 -18 -7 -22
-5 -19 12 -5 -13 19 -34 23 -20 26 -26 15 -42 -13 -22 -3 -27 15 -9 6 6 9 18
6 25 -3 8 -1 14 5 14 15 0 21 -22 10 -42 -8 -17 0 -23 25 -19 4 0 7 -4 7 -9 0
-6 -5 -10 -11 -10 -5 0 -7 -5 -3 -12 5 -8 12 -1 21 20 7 18 17 32 22 32 5 0 7
9 4 21 -3 11 -9 17 -12 12 -3 -4 -13 -9 -21 -11 -10 -3 -7 5 9 21 12 14 20 30
17 36 -8 12 20 45 47 54 9 4 17 12 17 18 0 8 -4 8 -15 -1 -12 -10 -15 -10 -15
2 0 18 62 18 68 0 5 -16 22 -5 22 14 0 9 7 22 15 30 18 19 20 55 3 52 -14 -3
-28 -18 -28 -32 0 -4 7 -5 16 -2 15 6 15 4 3 -10 -8 -10 -15 -12 -17 -5 -4 13
-22 5 -22 -10 0 -6 4 -8 8 -5 5 3 9 -2 9 -10 0 -10 -4 -11 -11 -4 -5 5 -22 10
-37 10 -36 0 -89 20 -89 33 0 7 4 7 12 -1 20 -20 45 -14 52 13 6 25 6 25 26 5
24 -24 36 -25 44 -4 3 8 2 13 -3 9 -5 -3 -12 1 -14 7 -4 10 -6 10 -6 1 -1 -7
-5 -13 -11 -13 -5 0 -7 6 -4 13 3 8 -9 18 -32 26 -20 7 -32 16 -27 20 14 9 24
41 13 41 -6 0 -10 -4 -10 -9 0 -5 -11 -16 -24 -24 -22 -15 -25 -15 -38 0 -11
15 -11 16 5 10 11 -4 16 -3 12 3 -3 6 -1 10 4 10 6 0 11 4 11 10 0 5 -7 6 -17
3 -11 -4 -14 -3 -9 5 5 8 1 10 -11 5 -16 -6 -16 -5 -4 10 7 10 9 17 3 17 -6 0
-12 -6 -15 -12 -4 -10 -7 -10 -17 -1 -11 10 -8 14 15 23 21 8 25 14 17 22 -9
9 -18 4 -38 -18 -16 -17 -24 -22 -21 -11 4 9 2 17 -3 17 -6 0 -10 -6 -10 -12
0 -9 -3 -8 -10 2 -10 16 5 31 26 23 17 -6 29 16 15 30 -9 9 -11 8 -6 -4 8 -20
-33 -19 -46 2 -14 22 -11 33 6 19 20 -17 34 -4 29 25 -2 14 0 25 6 25 5 0 10
-4 10 -10 0 -6 5 -9 11 -8 6 2 14 -3 16 -10 3 -7 -1 -10 -11 -6 -13 5 -13 2
-3 -19 8 -17 14 -22 19 -14 6 9 8 8 8 -2 0 -8 3 -11 6 -8 4 4 1 14 -7 24 -12
14 -12 16 1 11 19 -7 57 18 45 29 -4 5 -10 2 -12 -4 -5 -14 -33 -18 -33 -5 0
5 9 13 20 18 14 7 17 13 10 24 -8 13 -10 12 -10 -3 0 -10 -5 -15 -10 -12 -7 4
-7 13 0 26 15 28 30 23 37 -11 3 -16 9 -30 14 -30 5 0 6 -8 3 -17 -5 -15 -4
-16 5 -3 6 9 7 18 1 24 -17 17 -11 27 9 14 15 -9 23 -9 34 0 11 10 17 9 28 -4
11 -13 10 -17 -2 -26 -11 -8 -11 -9 4 -4 19 6 24 -10 5 -17 -9 -4 -9 -8 -3
-14 6 -4 11 -17 13 -28 2 -18 1 -18 -18 3 -11 13 -25 21 -32 19 -10 -4 -10 -6
0 -6 6 -1 12 -8 12 -16 0 -8 5 -15 11 -15 5 0 8 -4 4 -9 -3 -5 -1 -12 4 -15 5
-3 12 1 15 10 3 8 10 12 16 9 5 -3 10 -2 10 4 0 5 -4 12 -9 15 -4 3 -8 16 -7
28 1 19 6 22 30 20 16 -2 33 3 37 10 8 13 30 18 87 20 17 0 32 4 32 9 0 5 -5
9 -11 9 -5 0 -7 5 -4 10 3 6 -1 10 -10 10 -9 0 -14 -4 -11 -9 3 -5 -2 -11 -13
-14 -11 -2 -23 3 -30 15 -11 18 -10 19 8 13 12 -3 21 -2 21 3 0 5 18 8 39 8
21 -1 37 -5 33 -10 -3 -5 2 -6 12 -3 10 4 19 7 22 7 2 0 -5 15 -16 33 -21 34
-26 72 -11 81 5 4 11 0 14 -6 11 -32 14 2 5 51 -8 39 -13 49 -20 37 -5 -10 -5
-23 2 -36 9 -16 8 -18 -5 -14 -8 4 -15 10 -15 15 0 4 -7 6 -15 3 -13 -5 -13
-9 -3 -22 11 -13 11 -14 -2 -7 -8 4 -22 14 -32 22 -9 9 -18 10 -22 5 -3 -6 1
-13 9 -16 13 -4 14 -10 5 -26 -9 -18 -8 -20 15 -20 14 0 25 5 25 12 0 19 12 0
16 -24 2 -13 5 -32 7 -43 4 -16 -1 -20 -24 -21 -18 -1 -29 4 -29 12 0 8 -4 14
-9 14 -5 0 -7 -9 -4 -20 4 -16 0 -20 -21 -20 -26 0 -36 -22 -16 -35 6 -3 10
-12 9 -18 0 -9 -2 -9 -5 0 -4 9 -11 9 -29 1 -14 -6 -22 -15 -19 -19 7 -11 1
-11 -30 1 -14 5 -26 17 -26 25 0 15 1 15 16 1 20 -20 30 -21 14 -1 -10 12 -10
15 4 15 9 0 16 5 16 10 0 7 -6 7 -19 0 -22 -11 -37 2 -25 22 5 7 3 8 -5 4 -7
-5 -10 -14 -7 -22 3 -7 1 -16 -4 -19 -6 -4 -10 -1 -10 5 0 6 -8 9 -18 6 -15
-5 -18 -1 -17 24 1 16 11 41 23 55 12 14 22 35 22 47 0 25 9 19 15 -10 2 -13
-6 -31 -22 -47 -19 -19 -21 -24 -8 -19 14 6 16 4 10 -7 -7 -10 -1 -8 18 4 15
10 32 15 36 12 5 -3 11 0 13 7 3 7 12 9 23 5 17 -7 17 -9 -3 -30 -17 -18 -19
-26 -10 -35 9 -9 9 -12 0 -12 -7 0 -12 -5 -12 -11 0 -23 25 -1 30 27 4 19 11
29 23 28 9 -1 17 2 17 7 0 5 -4 9 -10 9 -5 0 -10 5 -10 11 0 5 4 8 9 5 14 -9
38 3 38 19 0 22 -56 23 -68 3 -4 -6 -14 -8 -23 -5 -9 4 -16 2 -16 -4 0 -6 -5
-7 -10 -4 -13 8 -2 26 13 23 16 -3 87 24 87 34 0 4 -6 13 -13 19 -11 11 -10
16 6 32 16 16 17 21 6 28 -11 6 -9 9 7 9 16 0 22 6 22 25 0 14 -5 28 -9 31 -5
3 -7 9 -4 14 3 4 -1 10 -8 13 -8 3 -13 -7 -14 -30z m14 -35 c-3 -7 -5 -2 -5
12 0 14 2 19 5 13 2 -7 2 -19 0 -25z m-119 -44 c-4 -3 2 -14 13 -25 10 -10 16
-25 13 -34 -4 -8 -2 -15 3 -15 17 0 22 12 13 31 -14 26 1 30 29 8 29 -23 21
-33 -35 -46 -36 -9 -42 -8 -40 5 2 9 8 18 15 20 14 5 -4 32 -21 32 -6 0 -5 -7
2 -15 14 -17 0 -21 -17 -4 -13 13 3 49 21 49 5 0 7 -3 4 -6z m-88 -54 c0 -5
-7 -10 -16 -10 -8 0 -12 5 -9 10 3 6 10 10 16 10 5 0 9 -4 9 -10z m17 -14 c-3
-7 -1 -18 5 -24 7 -7 5 -17 -6 -33 -8 -13 -15 -28 -15 -34 0 -5 -4 -11 -10
-13 -7 -2 -8 3 -4 14 6 16 5 17 -9 4 -9 -8 -12 -17 -7 -18 5 -2 6 -8 3 -13 -3
-6 -12 -2 -19 8 -13 17 -14 17 -37 -4 -28 -27 -38 -29 -38 -8 0 9 -7 18 -15
21 -20 8 -19 24 0 24 10 0 14 7 12 23 -6 38 59 75 71 39 4 -14 -17 -44 -27
-38 -4 3 -13 1 -20 -3 -9 -6 -10 -11 -2 -15 6 -4 11 -2 11 4 0 6 4 9 9 5 5 -3
16 2 24 10 19 19 27 19 27 1 0 -8 -6 -16 -12 -19 -7 -2 -2 -2 12 0 14 3 30 9
35 14 7 7 5 8 -5 4 -9 -3 -20 3 -27 14 -10 16 -9 20 2 25 10 3 15 -1 15 -14 0
-13 5 -18 15 -14 12 5 13 10 4 20 -6 7 -8 18 -4 24 9 15 18 12 12 -4z m33 -12
c0 -8 -4 -12 -10 -9 -5 3 -10 10 -10 16 0 5 5 9 10 9 6 0 10 -7 10 -16z m140
-32 c0 -5 -7 -9 -15 -9 -8 0 -15 4 -15 9 0 4 7 8 15 8 8 0 15 -4 15 -8z m-100
-11 c0 -5 -7 -11 -14 -14 -10 -4 -13 -1 -9 9 6 15 23 19 23 5z m-302 -20 c11
-7 11 -9 -2 -14 -9 -4 -16 -2 -16 4 0 6 -4 8 -9 4 -5 -3 -12 -1 -16 5 -7 12
25 13 43 1z m217 -69 c-8 -8 -25 10 -19 20 4 6 9 5 15 -3 4 -7 6 -15 4 -17z
m-95 -14 c0 -11 -12 -10 -30 2 -12 7 -10 9 8 7 12 0 22 -5 22 -9z m-66 -47
c-8 -9 -22 12 -17 26 6 15 7 14 13 -3 4 -10 6 -21 4 -23z m-38 -28 c-3 -8 -1
-11 4 -8 17 11 11 -7 -7 -21 -25 -19 -30 -17 -36 12 -3 18 -1 24 9 20 8 -3 13
-2 13 2 -3 17 2 23 12 17 6 -4 8 -14 5 -22z m14 -43 c0 -5 -5 -10 -11 -10 -5
0 -7 5 -4 10 3 6 8 10 11 10 2 0 4 -4 4 -10z m0 -29 c0 -4 12 -7 27 -5 34 3
81 -20 63 -31 -7 -4 -15 -2 -19 4 -11 18 -51 7 -71 -20 -10 -13 -22 -20 -27
-15 -4 4 3 16 16 27 26 21 21 25 -11 8 -27 -15 -33 -5 -11 20 18 22 33 27 33
12z m132 -85 c-3 -5 2 -7 11 -3 10 3 17 2 17 -3 0 -6 -5 -10 -12 -10 -6 0 -3
-9 7 -20 10 -11 13 -20 7 -20 -5 0 -21 13 -35 29 -14 17 -28 27 -31 24 -3 -4
-6 -2 -6 4 0 6 11 10 24 9 13 0 22 -5 18 -10z m-282 -10 c0 4 8 0 18 -9 10
-10 22 -14 25 -10 4 3 7 1 7 -5 0 -31 -47 -22 -74 15 -18 25 -18 25 3 14 11
-7 21 -9 21 -5z m334 -11 c-6 -16 -24 -21 -24 -7 0 11 11 22 21 22 5 0 6 -7 3
-15z m-234 -41 c0 -8 -5 -12 -10 -9 -6 4 -8 11 -5 16 9 14 15 11 15 -7z m156
-18 c-1 -12 -5 -27 -9 -33 -4 -6 0 -16 8 -23 12 -10 13 -16 4 -26 -15 -19 -22
-18 -64 7 -26 16 -33 24 -24 30 8 4 11 11 8 14 -9 9 -40 -6 -33 -16 3 -5 0 -9
-5 -9 -20 0 -11 18 18 39 31 23 52 28 33 9 -7 -7 -8 -17 -1 -30 5 -10 6 -18 2
-18 -4 0 3 -7 15 -16 22 -15 42 -12 42 7 0 5 -5 9 -11 9 -5 0 -7 -6 -3 -12 4
-7 4 -10 0 -6 -4 3 -8 10 -9 15 0 4 -7 14 -14 21 -14 15 -1 52 18 52 6 0 7 4
4 10 -3 5 0 7 9 4 8 -3 13 -16 12 -28z m38 -5 c20 -8 23 -14 18 -33 -9 -30
-34 -68 -46 -68 -4 0 -3 6 3 14 9 11 9 20 2 35 -7 13 -8 22 -1 26 9 6 14 -8
11 -27 0 -5 3 -8 8 -8 5 0 8 11 7 25 0 14 -6 25 -13 25 -6 0 -15 5 -18 10 -8
12 -3 13 29 1z m-179 -32 c-10 -15 -25 -10 -19 6 4 8 10 12 15 9 5 -3 7 -10 4
-15z m133 -82 c17 -13 15 -28 -3 -21 -8 4 -12 10 -9 15 3 5 1 9 -5 9 -5 0 -11
-6 -14 -12 -3 -10 -8 -10 -21 1 -33 28 16 35 52 8z m41 -60 c-2 -1 -12 -9 -21
-16 -15 -12 -18 -11 -18 3 0 10 8 16 22 16 12 0 19 -1 17 -3z"/>
<path d="M6670 4302 c6 -13 14 -21 18 -18 3 4 -2 14 -12 24 -18 16 -18 16 -6
-6z"/>
<path d="M6425 4249 c-4 -6 -5 -12 -2 -15 2 -3 7 2 10 11 7 17 1 20 -8 4z"/>
<path d="M6450 4249 c0 -5 5 -7 10 -4 6 3 10 8 10 11 0 2 -4 4 -10 4 -5 0 -10
-5 -10 -11z"/>
<path d="M6445 4190 c-4 -6 -13 -9 -21 -6 -15 6 -20 -9 -5 -18 11 -7 48 20 39
29 -3 3 -9 1 -13 -5z"/>
<path d="M6421 3796 c-9 -10 -8 -15 4 -20 10 -4 15 1 15 14 0 24 -4 25 -19 6z"/>
<path d="M6772 4435 c-10 -12 -10 -15 0 -15 9 0 9 -3 1 -11 -6 -6 -9 -18 -6
-26 3 -8 -2 -20 -12 -27 -14 -10 -15 -14 -3 -24 12 -9 19 -7 36 9 23 21 29 39
12 39 -5 0 -10 -6 -10 -14 0 -8 -5 -18 -12 -22 -8 -5 -9 -2 -3 12 4 10 7 27 7
37 0 9 6 17 14 17 9 0 12 -5 8 -12 -4 -7 -3 -8 4 -4 17 10 3 36 -16 28 -15 -5
-15 -4 -3 11 16 21 1 22 -17 2z"/>
<path d="M6270 4411 c0 -5 11 -8 25 -8 13 0 22 3 19 8 -3 5 -14 9 -25 9 -10 0
-19 -4 -19 -9z"/>
<path d="M6127 4404 c-11 -12 3 -23 20 -17 12 5 14 3 8 -7 -5 -9 -4 -11 4 -6
9 6 9 11 0 22 -12 15 -22 18 -32 8z"/>
<path d="M5246 4392 c-2 -4 0 -14 5 -22 8 -13 10 -13 18 0 10 15 6 30 -9 30
-5 0 -11 -4 -14 -8z"/>
<path d="M6650 4369 c0 -8 32 -29 44 -29 3 0 3 6 0 14 -6 16 -44 29 -44 15z"/>
<path d="M6400 4311 c0 -5 5 -13 10 -16 6 -3 10 -2 10 4 0 5 -4 13 -10 16 -5
3 -10 2 -10 -4z"/>
<path d="M5263 4297 c-13 -5 -23 -14 -23 -19 0 -12 18 -10 25 3 4 6 13 8 21 5
7 -3 16 -1 19 3 8 14 -18 19 -42 8z"/>
<path d="M5600 4300 c0 -5 5 -10 11 -10 5 0 7 5 4 10 -3 6 -8 10 -11 10 -2 0
-4 -4 -4 -10z"/>
<path d="M6238 4293 c-3 -13 -2 -23 4 -23 5 0 6 -5 2 -12 -5 -7 -3 -8 6 -3 10
6 12 4 6 -10 -5 -15 -4 -16 9 -5 19 16 19 30 1 30 -8 0 -16 10 -18 23 l-3 22
-7 -22z"/>
<path d="M5901 4276 c-8 -19 -16 -26 -27 -22 -8 3 -12 2 -9 -4 3 -6 14 -10 23
-10 14 0 15 -2 3 -9 -12 -8 -12 -14 -3 -33 l12 -23 -6 24 c-8 29 13 20 26 -13
7 -17 9 -18 9 -3 1 10 6 15 11 12 6 -4 7 -11 4 -17 -4 -6 -2 -8 4 -4 6 3 14 1
18 -5 5 -8 -4 -10 -30 -7 -23 2 -35 0 -33 -6 2 -6 22 -10 45 -9 29 2 40 -1 37
-10 -2 -6 -6 -25 -10 -40 -5 -26 -4 -28 17 -22 22 6 22 5 4 -9 -10 -8 -15 -19
-11 -25 3 -7 0 -8 -9 -5 -9 3 -13 10 -10 15 3 5 1 9 -4 9 -5 0 -14 -12 -21
-26 -11 -26 -12 -26 -27 -8 -14 18 -15 18 -5 -2 10 -21 6 -34 -11 -34 -4 0 -7
3 -7 8 3 19 -3 20 -21 5 -11 -10 -20 -22 -20 -28 0 -5 5 -3 10 5 7 12 13 13
27 4 19 -12 24 -9 53 32 13 18 18 19 40 7 14 -7 19 -13 13 -13 -7 0 -13 -4
-13 -10 0 -5 7 -7 15 -4 8 4 15 1 15 -5 0 -6 -4 -11 -9 -11 -5 0 -12 -8 -15
-17 -4 -11 3 -7 18 9 14 16 27 24 30 19 3 -4 -8 -21 -24 -36 -29 -27 -41 -53
-20 -40 6 3 10 2 10 -3 0 -5 -13 -9 -30 -8 -16 1 -28 6 -26 11 2 6 9 9 15 8 6
-2 11 1 11 5 0 18 -12 20 -30 4 -16 -13 -17 -19 -7 -31 11 -14 10 -14 -5 -2
-10 8 -18 9 -18 3 0 -6 5 -12 12 -14 9 -3 9 -6 0 -12 -7 -4 -12 -2 -12 4 0 8
-6 8 -20 0 -14 -7 -20 -7 -20 0 0 5 5 10 12 10 6 0 8 3 4 8 -7 7 -11 8 -37 11
-5 0 -7 6 -3 12 4 8 0 7 -15 -1 -20 -10 -21 -10 -9 9 12 19 14 19 36 5 18 -12
22 -12 17 -3 -5 8 -4 11 1 6 5 -5 10 -13 10 -18 1 -5 2 -12 3 -15 0 -4 8 -1
16 6 14 11 13 15 -5 27 -12 8 -24 12 -27 9 -3 -3 -12 -1 -20 6 -11 8 -18 6
-33 -10 -31 -32 -23 -71 7 -41 8 8 16 4 28 -14 10 -16 22 -23 34 -20 10 3 22
0 25 -6 9 -14 46 -14 46 0 0 6 -9 8 -22 3 -23 -6 -23 -6 -3 14 11 10 29 18 40
16 22 -4 47 -32 40 -45 -3 -4 5 -5 17 -1 21 5 21 6 2 13 -21 8 -12 12 22 10
11 -1 27 5 34 13 7 9 9 16 6 16 -4 0 -2 9 4 19 8 17 7 20 -10 18 -14 -1 -18
-6 -14 -19 3 -11 0 -18 -7 -18 -7 0 -9 3 -5 7 3 4 -4 13 -16 21 -13 7 -15 11
-5 8 9 -3 17 -1 17 5 0 6 7 9 15 5 18 -7 18 -4 4 28 -7 14 -16 23 -21 20 -4
-3 -11 2 -14 11 -5 12 -9 13 -20 4 -8 -6 -14 -8 -15 -3 0 5 -2 19 -5 31 -4 23
26 41 48 27 8 -5 9 -2 5 9 -3 9 -2 19 3 22 14 9 12 36 -1 33 -6 -2 -12 14 -14
35 -2 31 0 36 10 27 8 -6 12 -17 9 -25 -3 -7 -1 -16 5 -20 13 -7 10 22 -3 44
-5 8 -4 16 4 21 11 7 10 11 -2 24 -19 19 -32 8 -15 -12 10 -13 9 -15 -6 -9
-10 4 -21 7 -23 7 -3 0 -2 5 1 10 3 6 1 10 -4 10 -17 0 -13 -18 7 -29 17 -10
15 -12 -10 -15 -7 -1 -12 -12 -11 -24 3 -26 -9 -29 -28 -6 -11 14 -10 18 6 30
18 13 18 14 -1 36 -14 16 -15 20 -4 16 11 -4 16 0 16 13 0 15 -3 16 -16 5 -23
-20 -48 -26 -54 -13 -3 7 -5 6 -5 -3 2 -29 -1 -43 -8 -36 -12 11 -12 40 -1 53
5 7 8 18 5 25 -3 8 -9 1 -16 -16z m79 -54 c12 -13 11 -15 -7 -10 -11 3 -28 1
-37 -4 -15 -9 -16 -7 -7 9 12 23 32 25 51 5z m-15 -22 c3 -5 1 -10 -4 -10 -6
0 -11 5 -11 10 0 6 2 10 4 10 3 0 8 -4 11 -10z m60 -20 c3 -5 1 -10 -4 -10 -6
0 -11 5 -11 10 0 6 2 10 4 10 3 0 8 -4 11 -10z m12 -35 c-4 -8 -2 -17 3 -20
16 -10 11 -25 -7 -25 -15 0 -16 -2 -3 -10 11 -7 7 -9 -17 -7 -24 1 -29 5 -21
15 6 6 17 12 24 12 8 0 14 5 14 10 0 7 -6 7 -20 0 -27 -15 -25 4 3 23 28 20
30 20 24 2z m33 -175 c0 -6 -11 -15 -24 -20 -18 -7 -24 -15 -22 -34 2 -15 -2
-26 -9 -26 -17 0 -11 39 11 66 20 24 44 32 44 14z m-17 -83 c-3 -5 -9 -3 -14
4 -4 7 -5 17 -2 22 3 5 9 3 14 -4 4 -7 5 -17 2 -22z"/>
<path d="M5930 4276 c0 -2 7 -7 16 -10 8 -3 12 -2 9 4 -6 10 -25 14 -25 6z"/>
<path d="M5837 4254 c-3 -4 1 -13 9 -21 19 -20 26 -13 10 9 -7 10 -16 15 -19
12z"/>
<path d="M6070 4250 c0 -4 7 -7 15 -6 23 3 26 12 5 13 -11 1 -20 -2 -20 -7z"/>
<path d="M6774 4252 c-15 -10 -23 -37 -15 -51 6 -9 11 -8 21 4 11 13 10 14 -6
8 -18 -7 -18 -6 -1 20 18 28 19 31 1 19z"/>
<path d="M6824 4239 c0 -22 9 -24 25 -5 9 11 7 15 -7 18 -12 4 -18 -1 -18 -13z"/>
<path d="M6844 4215 c-4 -9 1 -24 9 -33 15 -16 15 -19 -3 -29 -12 -8 -17 -20
-13 -35 4 -21 3 -21 -13 4 -20 30 -46 46 -37 22 3 -7 10 -14 15 -14 6 0 5 -6
-2 -15 -8 -9 -8 -15 -2 -15 6 0 13 5 15 10 3 6 4 5 3 -2 -2 -7 -14 -13 -27
-14 -44 -2 -47 -4 -42 -24 5 -21 -11 -28 -22 -10 -3 6 -2 10 2 10 5 0 9 9 10
19 1 14 -3 18 -13 14 -8 -3 -13 -11 -11 -17 3 -7 -1 -20 -8 -30 -10 -13 -15
-14 -21 -5 -4 7 -2 15 4 17 7 2 12 9 12 15 -1 7 -9 2 -19 -10 -14 -17 -21 -19
-31 -10 -10 9 -11 9 -8 -3 3 -8 1 -23 -4 -34 -7 -13 -7 -16 1 -11 13 7 41 -11
41 -27 0 -6 -8 -4 -17 3 -11 10 -14 10 -9 2 7 -12 -20 -18 -64 -14 -11 1 -11
-1 3 -9 9 -6 17 -18 17 -25 0 -8 5 -15 11 -15 6 0 8 9 4 21 -6 19 -5 20 8 8 8
-8 12 -20 9 -27 -7 -18 20 -35 30 -19 10 16 10 29 0 23 -4 -2 -9 4 -9 15 -1
10 2 19 8 19 5 0 9 -5 9 -11 0 -8 5 -8 15 1 17 14 21 0 4 -17 -8 -8 -8 -17 0
-31 6 -10 7 -23 3 -27 -4 -4 0 -6 8 -5 29 4 50 0 50 -10 0 -5 -3 -9 -7 -7 -5
1 -9 -2 -11 -7 -1 -5 14 -11 34 -13 23 -2 33 0 29 7 -6 9 -2 12 28 14 6 1 17
5 22 9 6 4 19 15 30 23 20 15 20 15 -2 9 -12 -3 -24 -1 -27 4 -4 5 -20 9 -37
9 -36 -1 -18 -17 21 -18 l25 -1 -23 -9 c-15 -7 -29 -6 -42 2 -30 19 -32 36 -4
33 15 -1 24 3 24 12 0 7 7 16 16 20 14 5 13 9 -7 25 -17 12 -18 16 -6 12 12
-4 25 1 38 15 15 16 16 21 5 21 -8 0 -16 5 -18 11 -2 7 -10 4 -18 -7 -14 -16
-13 -17 3 -11 11 4 17 2 17 -8 0 -14 -21 -12 -45 5 -19 13 -45 19 -45 11 0 -5
10 -11 21 -14 14 -4 20 -11 16 -21 -3 -8 1 -17 8 -20 20 -7 9 -32 -15 -32 -11
0 -20 4 -20 9 0 4 -5 5 -10 2 -6 -4 -8 -10 -5 -15 3 -4 -2 -10 -10 -13 -9 -4
-12 -1 -8 9 3 7 0 14 -6 14 -6 0 -11 4 -11 9 0 5 19 8 42 6 38 -3 40 -1 23 11
-13 10 -22 11 -31 3 -10 -8 -12 -6 -11 10 1 12 4 21 8 21 4 0 6 8 5 18 -1 16
14 20 39 11 6 -2 10 1 10 6 0 6 -6 9 -12 9 -7 -1 -13 2 -13 8 0 5 -4 6 -10 3
-5 -3 -10 -2 -10 3 0 15 48 11 54 -4 5 -12 11 -12 43 1 28 11 33 11 21 1 -24
-18 -23 -29 2 -16 20 11 27 44 11 54 -5 3 -7 15 -4 26 3 11 1 20 -4 20 -9 0
-13 13 -14 52 0 24 -18 33 -25 13z m27 -83 c-9 -3 -8 -9 5 -23 15 -16 15 -19
2 -19 -16 0 -28 26 -21 48 3 6 10 9 16 5 8 -5 7 -8 -2 -11z m-26 -52 c3 -6 -1
-7 -9 -4 -18 7 -21 14 -7 14 6 0 13 -4 16 -10z m-128 -35 c-4 -8 -2 -17 3 -20
4 -3 11 1 13 7 3 8 6 6 6 -4 1 -10 -3 -18 -9 -18 -5 0 -7 -6 -4 -13 3 -8 -4
-13 -18 -14 -16 -2 -19 0 -9 6 8 5 11 16 8 25 -6 16 0 46 10 46 3 0 3 -7 0
-15z m-23 -22 c9 -23 4 -24 -22 -4 -21 16 -22 17 -3 18 11 1 22 -5 25 -14z
m25 -94 c-12 -7 -11 -9 1 -10 8 -1 18 -1 23 0 4 0 7 -4 7 -10 0 -5 5 -7 10 -4
6 3 10 1 10 -5 0 -12 -36 -5 -57 12 -14 11 -6 41 9 32 6 -4 5 -10 -3 -15z m71
-53 c0 -3 -4 -8 -10 -11 -5 -3 -10 -1 -10 4 0 6 5 11 10 11 6 0 10 -2 10 -4z"/>
<path d="M5265 4202 c3 -7 5 -18 5 -23 0 -5 5 -9 11 -9 6 0 8 7 5 16 -3 8 -2
12 4 9 6 -3 10 0 10 7 0 8 -9 14 -20 14 -13 0 -19 -5 -15 -14z"/>
<path d="M5773 4202 c-21 -22 -53 -35 -53 -23 0 5 -7 12 -17 15 -17 7 -60 -30
-48 -42 3 -3 10 0 15 8 11 17 11 17 16 -25 2 -24 1 -27 -7 -12 -6 9 -19 17
-30 17 -16 0 -19 4 -14 21 5 15 4 19 -4 15 -6 -4 -11 -14 -11 -22 0 -8 -4 -14
-10 -14 -5 0 -10 -4 -10 -8 0 -5 17 -7 38 -5 27 2 33 0 22 -7 -12 -8 -11 -11
7 -16 13 -4 20 -11 16 -17 -3 -6 -1 -7 5 -3 7 4 12 2 12 -3 0 -6 -5 -11 -11
-11 -5 0 -7 -4 -4 -10 3 -5 1 -10 -6 -10 -7 0 -9 -3 -6 -6 4 -4 12 -2 19 4 8
6 29 7 54 3 48 -9 74 1 74 30 0 13 -4 18 -11 13 -7 -4 -20 4 -30 17 -17 23
-17 25 4 49 20 23 20 23 1 7 -11 -9 -27 -17 -36 -17 -8 0 -20 -11 -26 -25 -16
-34 -29 -31 -24 5 3 21 10 30 23 31 34 3 37 4 58 28 12 13 21 26 21 28 0 8
-10 2 -27 -15z m-63 -27 c0 -12 -19 -12 -23 0 -4 9 -1 12 9 8 7 -3 14 -7 14
-8z m63 -70 c10 -14 15 -31 11 -38 -5 -8 -2 -7 9 2 9 7 17 9 17 3 0 -14 -24
-22 -39 -13 -6 4 -9 15 -6 23 4 9 0 18 -10 22 -11 4 -14 2 -9 -6 5 -8 1 -9
-12 -5 -19 7 -19 7 0 -8 22 -17 17 -29 -8 -19 -20 8 -20 23 1 46 21 23 24 23
46 -7z"/>
<path d="M5820 4199 c0 -5 -5 -7 -11 -4 -6 4 -5 -2 2 -14 9 -14 16 -17 20 -9
4 7 5 16 3 20 -3 4 7 3 23 -3 22 -8 26 -8 16 2 -16 16 -53 22 -53 8z"/>
<path d="M6660 4202 c0 -7 -6 -12 -14 -12 -8 0 -16 -7 -20 -15 -4 -13 -2 -13
14 -5 22 12 34 29 26 37 -3 4 -6 1 -6 -5z"/>
<path d="M5594 4172 c4 -7 3 -12 -2 -12 -21 0 -21 -33 1 -65 24 -38 45 -48 27
-14 -7 11 -9 24 -5 27 3 3 8 -4 12 -17 4 -15 11 -20 22 -17 9 4 6 -2 -8 -14
-25 -22 -15 -28 13 -7 30 22 -8 67 -51 59 -16 -3 -17 13 -3 38 7 13 7 21 -2
26 -7 4 -8 3 -4 -4z"/>
<path d="M5840 4171 c0 -5 5 -13 10 -16 6 -3 10 -2 10 4 0 5 -4 13 -10 16 -5
3 -10 2 -10 -4z"/>
<path d="M6126 4169 c3 -6 0 -15 -7 -20 -10 -6 -8 -10 10 -17 19 -7 29 -4 44
11 13 13 16 22 9 29 -7 7 -12 3 -17 -11 -3 -12 -13 -21 -21 -21 -18 0 -18 5 2
24 14 15 13 16 -6 16 -13 0 -19 -4 -14 -11z"/>
<path d="M5789 4143 c-12 -14 -12 -16 0 -8 11 6 13 4 8 -8 -3 -10 -2 -17 3
-17 6 0 10 11 10 25 0 30 -3 31 -21 8z"/>
<path d="M5820 4141 c0 -6 4 -12 10 -16 5 -3 7 -13 4 -23 -5 -14 -4 -15 5 -2
6 8 11 12 12 8 1 -5 3 -12 4 -18 1 -5 3 -15 4 -21 1 -8 7 -7 18 2 14 12 16 12
11 -2 -5 -12 1 -15 23 -15 18 0 26 3 20 9 -11 11 -4 37 10 37 4 0 6 -7 3 -15
-4 -8 -1 -15 7 -15 7 0 9 3 6 7 -4 3 -2 12 4 20 9 10 7 13 -8 13 -10 0 -24 5
-31 12 -9 9 -12 9 -12 0 0 -7 -5 -11 -12 -9 -7 1 -12 -4 -13 -12 0 -8 -6 -16
-13 -19 -7 -2 -12 0 -11 5 4 12 -23 63 -33 63 -4 0 -8 -4 -8 -9z m100 -46 c-6
-8 -8 -20 -4 -27 6 -10 3 -9 -9 1 -13 10 -15 17 -6 27 6 8 16 14 21 14 6 0 5
-6 -2 -15z"/>
<path d="M5872 4134 c-14 -16 -5 -18 17 -5 7 5 9 11 5 14 -5 3 -15 -1 -22 -9z"/>
<path d="M6355 4140 c-16 -7 -17 -9 -3 -9 9 -1 20 4 23 9 7 11 7 11 -20 0z"/>
<path d="M6088 4130 c-3 -8 1 -23 10 -32 17 -20 3 -25 -16 -6 -9 9 -12 8 -12
-5 0 -9 6 -17 13 -17 8 0 14 -7 14 -16 0 -10 -7 -14 -19 -11 -10 3 -18 2 -18
-3 0 -8 32 -21 68 -26 21 -3 22 -1 10 13 -7 9 -8 14 -2 10 8 -4 12 1 11 16 0
12 3 31 7 42 7 17 6 18 -4 3 -10 -17 -45 -14 -34 3 3 5 1 9 -5 9 -5 0 -11 8
-13 18 -3 14 -5 14 -10 2z m42 -59 c0 -6 -4 -13 -10 -16 -5 -3 -10 1 -10 9 0
9 5 16 10 16 6 0 10 -4 10 -9z m-10 -41 c0 -5 -4 -10 -10 -10 -5 0 -10 5 -10
10 0 6 5 10 10 10 6 0 10 -4 10 -10z"/>
<path d="M6226 4116 c3 -9 2 -16 -4 -16 -6 0 -12 6 -15 13 -2 6 -8 9 -12 5
-11 -11 4 -28 25 -28 26 0 33 15 15 30 -13 11 -14 10 -9 -4z"/>
<path d="M6531 4096 c-15 -18 0 -28 16 -10 7 7 9 15 4 18 -5 3 -14 -1 -20 -8z"/>
<path d="M5385 4090 c-3 -5 -1 -10 4 -10 6 0 11 5 11 10 0 6 -2 10 -4 10 -3 0
-8 -4 -11 -10z"/>
<path d="M6170 4081 c0 -5 -3 -17 -7 -26 -5 -16 -4 -16 15 1 12 9 19 21 16 26
-7 11 -24 10 -24 -1z"/>
<path d="M5832 4072 c4 -18 -51 -60 -60 -47 -4 6 -15 11 -26 12 -31 2 -2 -18
30 -21 27 -3 50 -36 25 -36 -5 0 -13 -9 -16 -20 -3 -11 -13 -20 -20 -20 -8 0
-19 -9 -25 -19 -13 -25 -13 -31 1 -31 5 0 7 5 4 11 -4 6 2 5 14 -2 14 -9 17
-16 9 -20 -7 -4 -16 -5 -20 -3 -4 3 -8 1 -8 -4 0 -15 23 -21 55 -15 19 4 26 2
21 -6 -8 -12 43 -36 53 -25 3 4 1 9 -6 11 -7 2 -10 10 -8 16 3 7 1 18 -4 26
-6 10 -13 11 -29 2 -25 -14 -35 -14 -27 -2 3 6 -4 15 -15 21 -11 6 -20 16 -20
22 0 6 6 6 16 -3 13 -11 15 -11 14 2 -1 7 -2 21 -1 29 1 13 3 13 12 0 9 -13
10 -12 5 3 -3 9 -1 17 4 17 6 0 10 8 10 18 0 13 2 14 9 4 7 -11 9 -10 14 3 4
9 3 14 -3 10 -11 -7 -9 23 4 43 5 8 3 19 -4 25 -9 9 -11 9 -8 -1z m-2 -46 c0
-3 -4 -8 -10 -11 -5 -3 -10 -1 -10 4 0 6 5 11 10 11 6 0 10 -2 10 -4z m14
-154 c3 -5 -1 -9 -9 -9 -8 0 -12 4 -9 9 3 4 7 8 9 8 2 0 6 -4 9 -8z"/>
<path d="M6473 4065 c-9 -10 -10 -16 -2 -21 8 -4 7 -9 -2 -15 -11 -7 -11 -9 2
-9 11 0 16 9 16 30 0 17 -1 30 -1 30 -1 -1 -7 -7 -13 -15z"/>
<path d="M6022 4048 c5 -15 28 -23 28 -10 0 5 -7 13 -16 16 -10 4 -14 1 -12
-6z"/>
<path d="M6193 4049 c-6 -6 -9 -18 -6 -25 3 -8 0 -14 -6 -14 -6 0 -11 -5 -11
-10 0 -7 6 -6 18 1 9 6 17 22 17 35 0 13 0 24 0 24 -1 0 -6 -5 -12 -11z"/>
<path d="M6500 4043 c0 -14 2 -15 9 -4 6 9 11 10 15 2 4 -6 12 -11 19 -11 12
0 -23 29 -35 30 -5 0 -8 -8 -8 -17z"/>
<path d="M5856 4035 c-7 -20 6 -26 21 -10 10 10 9 14 -2 18 -7 3 -16 -1 -19
-8z"/>
<path d="M5956 4012 c-4 -7 -3 -19 4 -26 8 -11 8 -15 -2 -19 -9 -4 -9 -6 -1
-6 17 -1 21 10 13 39 -4 17 -8 21 -14 12z"/>
<path d="M6050 4010 c0 -5 7 -7 15 -4 8 4 15 8 15 10 0 2 -7 4 -15 4 -8 0 -15
-4 -15 -10z"/>
<path d="M6490 4011 c-8 -6 -18 -7 -22 -5 -4 3 -8 1 -8 -5 0 -20 18 -20 35 -1
20 22 18 25 -5 11z"/>
<path d="M6519 4002 c-14 -12 -25 -32 -26 -48 -2 -24 -1 -26 8 -11 5 9 7 22 4
27 -9 15 4 12 21 -4 8 -8 11 -23 8 -33 -5 -15 -4 -16 5 -3 10 13 12 13 21 0 8
-13 10 -13 10 2 0 9 6 19 13 21 10 4 10 6 0 6 -7 1 -13 7 -13 14 0 7 -6 21
-13 31 -12 16 -14 16 -38 -2z m35 -31 c-2 -2 -11 -1 -20 3 -14 5 -14 9 -3 22
12 14 14 14 20 -3 3 -10 5 -20 3 -22z"/>
<path d="M6765 4000 c3 -5 10 -10 16 -10 5 0 9 5 9 10 0 6 -7 10 -16 10 -8 0
-12 -4 -9 -10z"/>
<path d="M6265 3980 c-3 -5 3 -10 15 -10 12 0 18 5 15 10 -3 6 -10 10 -15 10
-5 0 -12 -4 -15 -10z"/>
<path d="M5870 3975 c0 -12 33 -34 53 -35 10 0 17 7 17 20 0 22 -10 26 -28 8
-8 -8 -15 -8 -27 2 -8 7 -15 9 -15 5z"/>
<path d="M5341 3903 c23 -82 31 -112 32 -135 1 -21 13 -24 19 -6 3 7 7 3 10
-9 4 -16 2 -20 -8 -16 -8 3 -14 -1 -14 -8 0 -7 3 -9 6 -6 4 3 16 2 26 -4 14
-8 23 -8 31 0 8 8 6 11 -6 11 -9 0 -17 4 -17 10 0 5 7 6 17 3 10 -4 14 -2 9 5
-3 6 3 13 14 17 12 4 19 14 18 23 -3 19 32 18 44 -1 6 -9 8 -9 8 0 0 19 -40
37 -53 24 -17 -17 -26 -13 -22 9 6 33 -43 110 -70 110 -5 -1 -2 -5 8 -11 14
-8 16 -14 6 -25 -6 -8 -17 -14 -25 -14 -15 0 -29 19 -19 28 3 3 10 0 15 -8 7
-12 12 -12 22 -2 9 9 9 12 -4 12 -17 0 -32 26 -22 41 3 5 1 9 -5 9 -5 0 -16 3
-25 6 -13 5 -12 -4 5 -63z m13 32 c3 -8 1 -15 -4 -15 -6 0 -10 7 -10 15 0 8 2
15 4 15 2 0 6 -7 10 -15z m66 -66 c0 11 4 9 14 -5 9 -12 11 -21 4 -25 -7 -4
-6 -9 1 -13 6 -4 9 -11 6 -16 -3 -5 -1 -11 5 -15 5 -3 10 -11 10 -18 0 -6 -7
-2 -15 9 -11 15 -15 16 -16 4 -1 -8 -1 -19 0 -23 1 -4 -10 0 -24 9 -27 17 -31
29 -15 39 6 4 8 11 5 16 -4 5 3 9 14 9 12 0 21 5 21 11 0 5 -4 7 -10 4 -14 -9
-32 4 -24 17 4 6 10 5 15 -3 7 -12 9 -11 9 0z m-37 -36 c-6 -14 -8 -14 -14 3
-12 30 -10 37 5 24 8 -6 12 -19 9 -27z"/>
<path d="M5403 3815 c-10 -10 -9 -16 4 -27 15 -11 16 -11 10 5 -3 9 -2 17 3
17 6 0 10 5 10 10 0 14 -13 12 -27 -5z"/>
<path d="M6216 3922 c-2 -4 -1 -14 5 -22 6 -11 9 -12 9 -2 0 8 5 10 13 6 8 -5
8 -2 -2 9 -15 19 -18 20 -25 9z"/>
<path d="M6584 3917 c-3 -9 -16 -12 -37 -9 -18 3 -29 2 -26 -1 3 -4 14 -8 25
-10 10 -1 25 -6 33 -11 20 -13 55 -13 63 -1 5 6 8 6 8 -2 0 -7 5 -13 10 -13 6
0 10 4 10 8 0 12 -51 36 -69 33 -7 -1 -10 2 -6 8 3 6 4 11 0 11 -3 0 -8 -6
-11 -13z m32 -26 c-4 -6 -14 -7 -23 -4 -15 6 -14 7 3 13 22 9 29 6 20 -9z"/>
<path d="M5570 3906 c0 -8 5 -18 10 -21 6 -4 7 -11 4 -17 -4 -6 -2 -8 3 -5 6
4 19 -4 29 -18 10 -13 21 -22 26 -19 13 8 9 24 -7 24 -14 0 -39 34 -40 54 0
16 -25 18 -25 2z"/>
<path d="M5660 3910 c-13 -8 -13 -10 2 -10 9 0 20 5 23 10 8 13 -5 13 -25 0z"/>
<path d="M5965 3881 c-3 -6 1 -14 11 -18 13 -5 11 -8 -12 -18 -24 -10 -33 -10
-52 2 -27 17 -49 8 -31 -13 9 -11 9 -14 -1 -14 -10 0 -10 -3 -1 -14 10 -11 7
-14 -12 -12 -14 0 -23 6 -20 11 2 6 -7 11 -19 12 -16 2 -19 0 -9 -6 10 -7 11
-13 2 -27 -6 -11 -11 -15 -11 -10 0 5 -7 3 -15 -4 -13 -11 -14 -10 -9 4 3 9
10 16 16 16 5 0 6 5 2 11 -4 8 -12 2 -21 -15 -8 -15 -13 -29 -11 -30 2 -1 20
-12 41 -24 30 -18 37 -19 37 -6 0 8 -4 13 -9 10 -4 -3 -17 1 -27 9 -19 13 -18
13 1 12 11 -1 19 3 18 8 -1 6 11 11 25 12 25 1 26 0 7 -13 -10 -8 -14 -14 -7
-14 7 0 17 9 24 20 15 24 31 25 48 5 12 -14 15 -14 30 0 9 9 25 13 34 9 9 -3
24 0 33 7 14 12 15 11 9 -8 -4 -13 -2 -31 4 -40 8 -15 9 -13 4 10 -4 17 -2 27
5 27 6 0 10 -5 9 -11 -6 -23 20 -19 36 7 17 25 17 26 0 16 -25 -14 -54 3 -54
30 0 20 -13 18 -16 -3 -1 -5 -2 -13 -3 -18 -1 -10 -27 -9 -37 2 -4 4 3 7 15 7
18 0 20 3 12 19 -6 10 -8 20 -6 23 3 3 -3 13 -14 22 -13 11 -21 14 -26 7z m-8
-48 c17 7 27 7 34 0 8 -8 6 -11 -7 -10 -13 1 -18 -4 -16 -16 4 -23 -28 -35
-40 -14 -5 10 -15 14 -26 10 -14 -6 -15 -4 -5 9 7 8 9 18 5 23 -4 4 2 3 12 -2
14 -8 27 -8 43 0z"/>
<path d="M5940 3800 c0 -5 5 -10 10 -10 6 0 10 5 10 10 0 6 -4 10 -10 10 -5 0
-10 -4 -10 -10z"/>
<path d="M6863 3860 c-6 -22 -18 -26 -29 -9 -5 8 -10 6 -16 -5 -5 -9 -15 -16
-23 -16 -10 0 -14 -10 -12 -30 2 -32 15 -38 36 -17 10 10 16 7 29 -11 16 -20
18 -21 19 -4 2 22 -53 48 -61 28 -2 -6 -5 -3 -5 6 -1 9 4 20 9 23 6 3 10 2 10
-4 0 -20 41 -23 56 -4 11 15 15 15 23 4 5 -7 11 -9 14 -4 4 6 -5 15 -19 22
-22 9 -24 14 -14 26 10 12 10 15 0 15 -6 0 -14 -9 -17 -20z m7 -34 c-10 -13
-40 -12 -40 1 0 3 7 3 15 0 8 -4 17 -2 20 3 4 6 9 10 12 10 3 0 0 -6 -7 -14z"/>
<path d="M6367 3846 c-4 -10 -1 -13 9 -9 7 3 14 9 14 14 0 14 -17 10 -23 -5z"/>
<path d="M6540 3831 c0 -14 6 -21 20 -21 11 0 20 4 20 10 0 5 -7 6 -17 3 -10
-4 -14 -2 -9 5 3 6 2 13 -4 17 -5 3 -10 -3 -10 -14z"/>
<path d="M5643 3815 c-18 -20 -16 -30 3 -14 13 10 17 10 25 -2 10 -16 12 -8 3
15 -7 19 -15 20 -31 1z"/>
<path d="M6696 3798 c-14 -19 -14 -24 -2 -37 13 -12 19 -12 51 3 20 10 35 22
33 27 -4 13 -24 10 -20 -2 1 -5 -2 -9 -8 -9 -5 0 -10 5 -10 11 0 5 -5 7 -11 3
-8 -5 -8 -9 1 -14 9 -5 8 -9 -2 -13 -17 -6 -20 22 -5 41 6 8 6 12 -1 12 -6 0
-18 -10 -26 -22z"/>
<path d="M6070 3799 c0 -5 5 -7 10 -4 6 3 10 8 10 11 0 2 -4 4 -10 4 -5 0 -10
-5 -10 -11z"/>
<path d="M6260 3799 c0 -5 -4 -7 -10 -4 -5 3 -10 1 -10 -4 0 -6 7 -11 15 -11
8 0 15 7 15 15 0 8 -2 15 -5 15 -3 0 -5 -5 -5 -11z"/>
<path d="M6170 3760 c0 -19 3 -21 12 -12 9 9 9 15 0 24 -9 9 -12 7 -12 -12z"/>
<path d="M6263 3726 c0 -8 6 -12 14 -9 7 3 10 9 7 14 -8 14 -21 11 -21 -5z"/>
<path d="M5727 3714 c-6 -7 13 -54 22 -54 24 1 27 17 7 37 -13 13 -26 20 -29
17z"/>
<path d="M5606 3662 c-3 -5 1 -9 9 -9 8 0 15 4 15 9 0 4 -4 8 -9 8 -6 0 -12
-4 -15 -8z"/>
<path d="M6642 3653 c-6 -2 -10 -9 -6 -14 3 -5 0 -9 -6 -9 -6 0 -9 -4 -5 -10
3 -5 14 -1 25 10 28 28 25 37 -8 23z"/>
<path d="M5800 3641 c0 -6 5 -13 10 -16 6 -3 10 1 10 9 0 9 -4 16 -10 16 -5 0
-10 -4 -10 -9z"/>
<path d="M5970 3633 c0 -5 4 -13 8 -18 6 -9 14 -11 39 -6 8 1 -29 30 -39 31
-5 0 -8 -3 -8 -7z"/>
<path d="M5830 3623 c0 -4 5 -15 10 -23 8 -13 10 -13 10 2 0 9 -4 20 -10 23
-5 3 -10 3 -10 -2z"/>
<path d="M5865 3610 c-3 -5 -1 -10 4 -10 6 0 11 5 11 10 0 6 -2 10 -4 10 -3 0
-8 -4 -11 -10z"/>
<path d="M6780 3565 c0 -15 38 -41 47 -32 5 5 -33 47 -42 47 -3 0 -5 -7 -5
-15z"/>
<path d="M6360 3524 c0 -14 3 -14 15 -4 8 7 15 14 15 16 0 2 -7 4 -15 4 -8 0
-15 -7 -15 -16z"/>
<path d="M5674 4364 c3 -9 6 -18 6 -20 0 -3 5 -2 10 1 6 3 10 1 10 -4 0 -6 4
-11 10 -11 5 0 7 7 4 15 -4 8 -13 15 -21 15 -8 0 -11 5 -8 10 3 6 1 10 -5 10
-7 0 -9 -7 -6 -16z"/>
<path d="M5387 4343 c-14 -4 -16 -8 -6 -19 16 -20 25 -18 25 6 0 11 0 19 -1
19 0 -1 -8 -3 -18 -6z"/>
<path d="M5490 4170 c0 -5 5 -10 11 -10 5 0 7 5 4 10 -3 6 -8 10 -11 10 -2 0
-4 -4 -4 -10z"/>
<path d="M5435 4141 c-3 -5 -1 -12 5 -16 5 -3 10 1 10 9 0 18 -6 21 -15 7z"/>
<path d="M5660 3751 c1 -3 7 -17 15 -31 l14 -25 -2 31 c-1 17 -8 31 -14 31 -7
0 -13 -3 -13 -6z"/>
<path d="M5640 3716 c0 -9 7 -16 16 -16 9 0 14 5 12 12 -6 18 -28 21 -28 4z"/>
<path d="M6558 3669 c-10 -5 -18 -15 -18 -21 0 -7 5 -7 14 1 11 9 16 9 21 0 6
-8 10 -8 16 2 15 25 -3 36 -33 18z"/>
<path d="M6550 3600 c0 -5 5 -10 11 -10 5 0 7 5 4 10 -3 6 -8 10 -11 10 -2 0
-4 -4 -4 -10z"/>
<path d="M6850 3659 c0 -5 5 -7 10 -4 6 3 10 8 10 11 0 2 -4 4 -10 4 -5 0 -10
-5 -10 -11z"/>
<path d="M5626 3559 c4 -8 -1 -9 -17 -4 -23 7 -23 6 -7 -10 15 -16 18 -16 32
-3 15 15 12 28 -6 28 -5 0 -6 -5 -2 -11z"/>
<path d="M5565 3530 c-3 -5 -2 -10 4 -10 5 0 13 5 16 10 3 6 2 10 -4 10 -5 0
-13 -4 -16 -10z"/>
<path d="M5980 3538 c0 -4 -7 -5 -15 -2 -9 4 -15 0 -15 -9 0 -8 8 -18 17 -21
10 -4 14 -4 10 0 -4 4 5 15 20 25 25 17 25 18 5 16 -12 -1 -22 -5 -22 -9z"/>
<path d="M5805 3420 c-3 -5 -1 -10 4 -10 6 0 11 5 11 10 0 6 -2 10 -4 10 -3 0
-8 -4 -11 -10z"/>
<path d="M5965 3410 c3 -5 8 -10 11 -10 2 0 4 5 4 10 0 6 -5 10 -11 10 -5 0
-7 -4 -4 -10z"/>
<path d="M6230 3585 c-7 -9 -8 -15 -2 -15 5 0 8 -10 4 -22 -3 -14 -1 -19 6
-14 6 4 10 20 9 36 -2 35 -1 34 -17 15z"/>
<path d="M6259 3550 c-6 -16 -17 -30 -24 -30 -16 0 -30 -18 -21 -27 3 -3 12 0
20 6 8 7 19 10 25 7 5 -3 8 2 7 11 -2 10 4 28 12 41 10 15 11 22 3 22 -7 0
-17 -13 -22 -30z"/>
<path d="M5800 3525 c-6 -8 -9 -19 -5 -25 9 -14 28 -1 21 15 -3 8 0 16 7 19 8
3 8 5 1 5 -6 1 -17 -6 -24 -14z"/>
<path d="M5487 3483 c-4 -6 0 -14 9 -17 24 -9 36 -7 29 4 -4 6 -10 8 -15 5 -4
-3 -10 0 -12 7 -3 8 -6 9 -11 1z"/>
</g>
</svg>
